G04*
G04 #@! TF.GenerationSoftware,Altium Limited,Altium Designer,23.4.1 (23)*
G04*
G04 Layer_Physical_Order=3*
G04 Layer_Color=128*
%FSLAX44Y44*%
%MOMM*%
G71*
G04*
G04 #@! TF.SameCoordinates,A85FFBAE-4C14-42E1-BC73-6B9073B981DD*
G04*
G04*
G04 #@! TF.FilePolarity,Negative*
G04*
G01*
G75*
%ADD40C,1.9000*%
%ADD71C,1.0000*%
%ADD92C,0.8000*%
%ADD93C,1.0160*%
%ADD94C,1.8000*%
%ADD95R,2.9000X1.4000*%
%ADD96C,1.4000*%
%ADD97C,1.7000*%
%ADD98C,4.0000*%
%ADD99C,2.8000*%
%ADD100C,1.2000*%
%ADD101C,3.4000*%
%ADD102C,3.5000*%
%ADD103C,0.7000*%
%ADD104R,1.6000X2.2000*%
%ADD105C,3.0000*%
%ADD106C,3.6000*%
%ADD107C,2.3000*%
G36*
X782000Y946231D02*
Y972000D01*
X769000Y985000D01*
X742000D01*
X733500Y976500D01*
Y958500D01*
X756500Y935500D01*
X766500D01*
X782000Y946231D01*
D02*
G37*
G36*
X655000Y1073231D02*
Y1099000D01*
X642000Y1112000D01*
X615000D01*
X606500Y1103500D01*
Y1085500D01*
X629500Y1062500D01*
X639500D01*
X655000Y1073231D01*
D02*
G37*
D40*
X956000Y1200000D02*
D03*
Y1090000D02*
D03*
Y980000D02*
D03*
Y870000D02*
D03*
Y760000D02*
D03*
D71*
X777425Y944902D02*
X777107Y947419D01*
X776173Y949779D01*
X774681Y951831D01*
X772726Y953449D01*
X770430Y954529D01*
X767937Y955005D01*
X765405Y954846D01*
X762991Y954061D01*
X760849Y952702D01*
X759112Y950852D01*
X757889Y948628D01*
X757258Y946170D01*
Y943633D01*
X757889Y941175D01*
X759112Y938951D01*
X760849Y937102D01*
X762991Y935742D01*
X765405Y934958D01*
X767937Y934798D01*
X770430Y935274D01*
X772726Y936354D01*
X774681Y937972D01*
X776173Y940025D01*
X777107Y942384D01*
X777425Y944902D01*
X777523Y970400D02*
X777205Y972917D01*
X776271Y975277D01*
X774780Y977330D01*
X772824Y978947D01*
X770528Y980028D01*
X768036Y980503D01*
X765503Y980344D01*
X763090Y979560D01*
X760947Y978200D01*
X759210Y976350D01*
X757988Y974127D01*
X757357Y971669D01*
Y969131D01*
X757988Y966673D01*
X759210Y964450D01*
X760947Y962600D01*
X763090Y961240D01*
X765503Y960456D01*
X768036Y960297D01*
X770528Y960772D01*
X772824Y961853D01*
X774779Y963470D01*
X776271Y965523D01*
X777205Y967882D01*
X777523Y970400D01*
X752025Y970302D02*
X751707Y972819D01*
X750773Y975179D01*
X749281Y977231D01*
X747326Y978849D01*
X745030Y979929D01*
X742537Y980405D01*
X740005Y980246D01*
X737591Y979461D01*
X735449Y978102D01*
X733712Y976252D01*
X732489Y974028D01*
X731858Y971570D01*
Y969033D01*
X732489Y966575D01*
X733712Y964351D01*
X735449Y962502D01*
X737591Y961142D01*
X740005Y960358D01*
X742537Y960198D01*
X745030Y960674D01*
X747326Y961754D01*
X749281Y963372D01*
X750773Y965425D01*
X751707Y967784D01*
X752025Y970302D01*
X650425Y1071902D02*
X650107Y1074419D01*
X649173Y1076778D01*
X647681Y1078831D01*
X645726Y1080449D01*
X643430Y1081529D01*
X640937Y1082005D01*
X638405Y1081845D01*
X635991Y1081061D01*
X633849Y1079702D01*
X632112Y1077852D01*
X630889Y1075628D01*
X630258Y1073170D01*
Y1070633D01*
X630889Y1068175D01*
X632112Y1065951D01*
X633849Y1064102D01*
X635991Y1062742D01*
X638405Y1061958D01*
X640937Y1061798D01*
X643430Y1062274D01*
X645726Y1063354D01*
X647681Y1064972D01*
X649173Y1067025D01*
X650107Y1069384D01*
X650425Y1071902D01*
X650608Y1097302D02*
X650284Y1099865D01*
X649333Y1102267D01*
X647814Y1104357D01*
X645824Y1106003D01*
X643486Y1107103D01*
X640949Y1107587D01*
X638371Y1107425D01*
X635914Y1106627D01*
X633732Y1105242D01*
X631964Y1103359D01*
X630719Y1101096D01*
X630077Y1098593D01*
Y1096010D01*
X630719Y1093508D01*
X631964Y1091244D01*
X633732Y1089361D01*
X635914Y1087976D01*
X638371Y1087178D01*
X640949Y1087016D01*
X643486Y1087500D01*
X645824Y1088600D01*
X647814Y1090247D01*
X649333Y1092337D01*
X650284Y1094739D01*
X650608Y1097302D01*
X624808Y1097302D02*
X624497Y1099765D01*
X623582Y1102074D01*
X622123Y1104083D01*
X620210Y1105666D01*
X617963Y1106723D01*
X615524Y1107188D01*
X613045Y1107032D01*
X610684Y1106265D01*
X608587Y1104934D01*
X606887Y1103124D01*
X605691Y1100948D01*
X605074Y1098543D01*
Y1096060D01*
X605691Y1093655D01*
X606887Y1091479D01*
X608587Y1089669D01*
X610684Y1088338D01*
X613045Y1087571D01*
X615524Y1087415D01*
X617963Y1087880D01*
X620210Y1088938D01*
X622123Y1090520D01*
X623582Y1092529D01*
X624497Y1094838D01*
X624808Y1097302D01*
X261000Y710000D02*
X575000D01*
X602000D02*
X636000D01*
X761000Y932000D02*
X768000Y925000D01*
X684000Y932000D02*
X761000D01*
X670000Y918000D02*
X684000Y932000D01*
X709000Y1159000D02*
X723000Y1145000D01*
X986000D01*
X608000Y980000D02*
X663000Y1035000D01*
X985000D01*
X768000Y925000D02*
X985000D01*
X767302Y857698D02*
Y944902D01*
Y857698D02*
X810000Y815000D01*
X985000D01*
X1560000D01*
X1615000Y870000D01*
X985000Y925000D02*
X1600000Y925000D01*
X1615000Y940000D01*
X985000Y1035000D02*
X1590000D01*
X1615000Y1010000D01*
X986000Y1145000D02*
X1550000D01*
X1615000Y1080000D01*
Y870000D02*
X1760000D01*
X1615000Y940000D02*
X1760000D01*
X1615000Y1010000D02*
X1760000D01*
X1615000Y1080000D02*
X1760000D01*
X729000Y1179000D02*
Y1260000D01*
X709000Y1159000D02*
X729000Y1179000D01*
X623000Y1159000D02*
X709000D01*
X605000Y1141000D02*
X623000Y1159000D01*
X605000Y1069000D02*
Y1141000D01*
X595000Y1059000D02*
X605000Y1069000D01*
X587000Y1059000D02*
X595000D01*
X573000Y1045000D02*
X587000Y1059000D01*
X573000Y1015000D02*
Y1045000D01*
Y1015000D02*
X670000Y918000D01*
Y744000D02*
Y918000D01*
X636000Y710000D02*
X670000Y744000D01*
D92*
X575000Y710000D02*
Y758000D01*
Y706000D02*
X627000Y654000D01*
X668000D01*
X675000Y661000D01*
Y678000D01*
X667000Y686000D02*
X675000Y678000D01*
X626000Y686000D02*
X667000D01*
X600000Y712000D02*
X626000Y686000D01*
X600000Y712000D02*
Y764000D01*
X593000Y771000D02*
X600000Y764000D01*
X580000Y771000D02*
X593000D01*
X575000Y766000D02*
X580000Y771000D01*
X575000Y758000D02*
Y766000D01*
D93*
X1710000Y560000D02*
X1712532Y560064D01*
X1715058Y560257D01*
X1717571Y560577D01*
X1720065Y561023D01*
X1722533Y561596D01*
X1724968Y562293D01*
X1727365Y563112D01*
X1729718Y564052D01*
X1732020Y565110D01*
X1734265Y566283D01*
X1736448Y567568D01*
X1738563Y568962D01*
X1740605Y570461D01*
X1742569Y572062D01*
X1744448Y573760D01*
X1746240Y575552D01*
X1747938Y577431D01*
X1749539Y579395D01*
X1751038Y581437D01*
X1752432Y583552D01*
X1753717Y585735D01*
X1754890Y587980D01*
X1755948Y590282D01*
X1756888Y592635D01*
X1757707Y595032D01*
X1758404Y597467D01*
X1758976Y599935D01*
X1759423Y602429D01*
X1759743Y604942D01*
X1759936Y607468D01*
X1760000Y610000D01*
X1760000Y1210000D02*
X1759936Y1212532D01*
X1759743Y1215058D01*
X1759423Y1217571D01*
X1758976Y1220065D01*
X1758404Y1222533D01*
X1757707Y1224968D01*
X1756888Y1227365D01*
X1755948Y1229718D01*
X1754890Y1232020D01*
X1753717Y1234265D01*
X1752432Y1236448D01*
X1751038Y1238563D01*
X1749539Y1240605D01*
X1747938Y1242569D01*
X1746240Y1244448D01*
X1744448Y1246240D01*
X1742569Y1247938D01*
X1740605Y1249539D01*
X1738563Y1251038D01*
X1736448Y1252432D01*
X1734265Y1253717D01*
X1732020Y1254890D01*
X1729718Y1255948D01*
X1727365Y1256888D01*
X1724968Y1257707D01*
X1722533Y1258404D01*
X1720065Y1258977D01*
X1717571Y1259423D01*
X1715058Y1259743D01*
X1712533Y1259936D01*
X1710000Y1260000D01*
X260000Y610000D02*
X260064Y607467D01*
X260257Y604942D01*
X260577Y602429D01*
X261024Y599935D01*
X261596Y597467D01*
X262293Y595032D01*
X263112Y592635D01*
X264052Y590282D01*
X265110Y587980D01*
X266283Y585735D01*
X267568Y583552D01*
X268962Y581437D01*
X270461Y579395D01*
X272062Y577431D01*
X273760Y575552D01*
X275552Y573760D01*
X277431Y572062D01*
X279395Y570461D01*
X281437Y568962D01*
X283552Y567568D01*
X285735Y566283D01*
X287980Y565110D01*
X290282Y564052D01*
X292635Y563112D01*
X295032Y562293D01*
X297467Y561596D01*
X299935Y561023D01*
X302429Y560577D01*
X304942Y560257D01*
X307468Y560064D01*
X310000Y560000D01*
Y1260000D02*
X307467Y1259936D01*
X304942Y1259743D01*
X302429Y1259423D01*
X299935Y1258977D01*
X297467Y1258404D01*
X295032Y1257707D01*
X292635Y1256888D01*
X290282Y1255948D01*
X287980Y1254890D01*
X285735Y1253717D01*
X283552Y1252432D01*
X281437Y1251038D01*
X279395Y1249539D01*
X277431Y1247938D01*
X275552Y1246240D01*
X273760Y1244448D01*
X272062Y1242569D01*
X270461Y1240605D01*
X268962Y1238563D01*
X267568Y1236448D01*
X266283Y1234265D01*
X265110Y1232020D01*
X264052Y1229718D01*
X263112Y1227365D01*
X262293Y1224968D01*
X261596Y1222533D01*
X261024Y1220065D01*
X260577Y1217571D01*
X260257Y1215058D01*
X260064Y1212532D01*
X260000Y1210000D01*
X310000Y560000D02*
X1710000D01*
X1760000Y610000D02*
X1760000Y1210000D01*
X310000Y1260000D02*
X1710000D01*
X260000Y610000D02*
Y1210000D01*
D94*
X593038Y1046502D02*
X592211Y1048775D01*
X590116Y1049985D01*
X587733Y1049565D01*
X586178Y1047711D01*
Y1045292D01*
X587733Y1043439D01*
X590116Y1043018D01*
X592211Y1044228D01*
X593038Y1046502D01*
X821201Y1090000D02*
X820698Y1092526D01*
X819268Y1094667D01*
X817126Y1096098D01*
X814600Y1096600D01*
X812075Y1096098D01*
X809933Y1094667D01*
X808502Y1092526D01*
X808000Y1090000D01*
X808502Y1087474D01*
X809933Y1085333D01*
X812075Y1083902D01*
X814600Y1083400D01*
X817126Y1083902D01*
X819268Y1085333D01*
X820698Y1087474D01*
X821201Y1090000D01*
Y980000D02*
X820698Y982526D01*
X819268Y984667D01*
X817126Y986098D01*
X814600Y986600D01*
X812075Y986098D01*
X809933Y984667D01*
X808502Y982526D01*
X808000Y980000D01*
X808502Y977474D01*
X809933Y975333D01*
X812075Y973902D01*
X814600Y973400D01*
X817126Y973902D01*
X819268Y975333D01*
X820698Y977474D01*
X821201Y980000D01*
Y870000D02*
X820698Y872526D01*
X819268Y874667D01*
X817126Y876098D01*
X814600Y876600D01*
X812075Y876098D01*
X809933Y874667D01*
X808502Y872526D01*
X808000Y870000D01*
X808502Y867474D01*
X809933Y865333D01*
X812075Y863902D01*
X814600Y863400D01*
X817126Y863902D01*
X819268Y865333D01*
X820698Y867474D01*
X821201Y870000D01*
Y760000D02*
X820698Y762526D01*
X819268Y764667D01*
X817126Y766098D01*
X814600Y766600D01*
X812075Y766098D01*
X809933Y764667D01*
X808502Y762526D01*
X808000Y760000D01*
X808502Y757474D01*
X809933Y755333D01*
X812075Y753902D01*
X814600Y753400D01*
X817126Y753902D01*
X819268Y755333D01*
X820698Y757474D01*
X821201Y760000D01*
Y1200000D02*
X820698Y1202526D01*
X819268Y1204667D01*
X817126Y1206098D01*
X814600Y1206600D01*
X812075Y1206098D01*
X809933Y1204667D01*
X808502Y1202526D01*
X808000Y1200000D01*
X808502Y1197474D01*
X809933Y1195333D01*
X812075Y1193902D01*
X814600Y1193400D01*
X817126Y1193902D01*
X819268Y1195333D01*
X820698Y1197474D01*
X821201Y1200000D01*
D95*
X1612500Y635000D02*
D03*
X1335500Y1205000D02*
D03*
Y1095000D02*
D03*
Y985000D02*
D03*
X1334962Y874687D02*
D03*
X1335500Y765000D02*
D03*
D96*
X1670000Y1120000D02*
D03*
Y1050000D02*
D03*
Y980000D02*
D03*
Y910000D02*
D03*
Y840000D02*
D03*
Y770000D02*
D03*
X614902Y1097302D02*
D03*
X589502Y1046502D02*
D03*
X716502Y919502D02*
D03*
X1146002Y734996D02*
D03*
X1036002D02*
D03*
X1146002Y844996D02*
D03*
X1036002D02*
D03*
X1146002Y954996D02*
D03*
X1036002D02*
D03*
X1146002Y1064996D02*
D03*
X1036002D02*
D03*
X1146002Y1174996D02*
D03*
X1036002D02*
D03*
D97*
X590012Y919282D02*
D03*
X768228Y1097498D02*
D03*
D98*
X526000Y1110000D02*
D03*
Y1046500D02*
D03*
D99*
X690000Y1190000D02*
D03*
X600000D02*
D03*
X510000D02*
D03*
X420000D02*
D03*
X526000Y1016000D02*
D03*
X360000Y1160000D02*
D03*
D100*
X870000Y670000D02*
D03*
X800000D02*
D03*
X590000D02*
D03*
X520000D02*
D03*
X730000D02*
D03*
X310000D02*
D03*
X1580000Y720000D02*
D03*
D101*
X290000Y1026000D02*
D03*
Y1110000D02*
D03*
X1710000Y1210000D02*
D03*
X310000D02*
D03*
Y610000D02*
D03*
X1210000D02*
D03*
D102*
X380000Y809999D02*
D03*
Y960000D02*
D03*
X310000D02*
D03*
X814600Y1200000D02*
D03*
Y1090000D02*
D03*
Y980000D02*
D03*
Y870000D02*
D03*
Y760000D02*
D03*
D103*
X633000Y735000D02*
D03*
X696000D02*
D03*
X628000Y852473D02*
D03*
X475000Y772000D02*
D03*
X564000D02*
D03*
X723000Y860000D02*
D03*
X700750Y836250D02*
D03*
X1616000Y638000D02*
D03*
X1623000Y632000D02*
D03*
X1616000D02*
D03*
X1609000Y638000D02*
D03*
Y632000D02*
D03*
X1602000Y638000D02*
D03*
Y632000D02*
D03*
X1623000Y638000D02*
D03*
X1587000Y597000D02*
D03*
X1369000Y577000D02*
D03*
X1507000Y680000D02*
D03*
X1499000D02*
D03*
X1507000Y673000D02*
D03*
X1499000D02*
D03*
X1507000Y687000D02*
D03*
X1499000D02*
D03*
X1280000Y624000D02*
D03*
X1296000D02*
D03*
X1288000D02*
D03*
X1304000D02*
D03*
X1280000Y632000D02*
D03*
X1296000D02*
D03*
X1288000D02*
D03*
X1304000D02*
D03*
Y640000D02*
D03*
X1288000D02*
D03*
X1296000D02*
D03*
X1280000D02*
D03*
X1339000Y768000D02*
D03*
X1346000Y762000D02*
D03*
X1339000D02*
D03*
X1332000Y768000D02*
D03*
Y762000D02*
D03*
X1325000Y768000D02*
D03*
Y762000D02*
D03*
X1346000Y768000D02*
D03*
X1339000Y878000D02*
D03*
X1346000Y872000D02*
D03*
X1339000D02*
D03*
X1332000Y878000D02*
D03*
Y872000D02*
D03*
X1325000Y878000D02*
D03*
Y872000D02*
D03*
X1346000Y878000D02*
D03*
X1339000Y988000D02*
D03*
X1346000Y982000D02*
D03*
X1339000D02*
D03*
X1332000Y988000D02*
D03*
Y982000D02*
D03*
X1325000Y988000D02*
D03*
Y982000D02*
D03*
X1346000Y988000D02*
D03*
X1339000Y1098000D02*
D03*
X1346000Y1092000D02*
D03*
X1339000D02*
D03*
X1332000Y1098000D02*
D03*
Y1092000D02*
D03*
X1325000Y1098000D02*
D03*
Y1092000D02*
D03*
X1346000Y1098000D02*
D03*
Y1208000D02*
D03*
X1325000Y1202000D02*
D03*
Y1208000D02*
D03*
X1332000Y1202000D02*
D03*
Y1208000D02*
D03*
X1339000Y1202000D02*
D03*
X1346000D02*
D03*
X1339000Y1208000D02*
D03*
X565000Y745000D02*
D03*
X564000Y801000D02*
D03*
X1726794Y1193206D02*
D03*
X1693206Y1226794D02*
D03*
X1693206Y1193206D02*
D03*
X1726794Y1226794D02*
D03*
X1710000Y1233750D02*
D03*
Y1186250D02*
D03*
X1686250Y1210000D02*
D03*
X1733750D02*
D03*
X326794Y1193206D02*
D03*
X293206Y1226794D02*
D03*
X293206Y1193206D02*
D03*
X326794Y1226794D02*
D03*
X310000Y1233750D02*
D03*
Y1186250D02*
D03*
X286250Y1210000D02*
D03*
X333750D02*
D03*
X326794Y593206D02*
D03*
X293206Y626794D02*
D03*
X293206Y593206D02*
D03*
X326794Y626794D02*
D03*
X310000Y633750D02*
D03*
Y586250D02*
D03*
X286250Y610000D02*
D03*
X333750D02*
D03*
X1226794Y593206D02*
D03*
X1193206Y626794D02*
D03*
X1193206Y593206D02*
D03*
X1226794Y626794D02*
D03*
X1210000Y633750D02*
D03*
Y586250D02*
D03*
X1186250Y610000D02*
D03*
X1233750D02*
D03*
D104*
X1503000Y680000D02*
D03*
D105*
X640302Y1071902D02*
D03*
Y1097302D02*
D03*
X741902Y970302D02*
D03*
X767302Y944902D02*
D03*
X767400Y970400D02*
D03*
D106*
X418000Y1110000D02*
D03*
Y1026000D02*
D03*
Y1068000D02*
D03*
D107*
X659000Y791000D02*
D03*
X617000Y884000D02*
D03*
M02*
