G04*
G04 #@! TF.GenerationSoftware,Altium Limited,Altium Designer,23.4.1 (23)*
G04*
G04 Layer_Color=32896*
%FSLAX44Y44*%
%MOMM*%
G71*
G04*
G04 #@! TF.SameCoordinates,BCE614DE-687F-41C1-B215-CC2C3E098A35*
G04*
G04*
G04 #@! TF.FilePolarity,Positive*
G04*
G01*
G75*
%ADD10C,0.1000*%
%ADD14C,0.2540*%
D10*
X403000Y818000D02*
Y866000D01*
X437000Y818000D02*
Y866000D01*
X561000Y835000D02*
Y853000D01*
X579000Y835000D02*
Y853000D01*
X558500Y819500D02*
Y868500D01*
X581500D01*
Y819500D02*
Y868500D01*
X558500Y819500D02*
X581500D01*
X1667500Y737500D02*
X1676000D01*
X1688000D02*
X1696500D01*
X1688000Y752500D02*
X1696500D01*
X1667500D02*
X1676000D01*
X1696500Y737500D02*
Y752500D01*
X1667500Y737500D02*
Y752500D01*
X1679000Y750000D02*
X1685000D01*
X1679000Y740000D02*
X1685000D01*
X362500Y887500D02*
Y936500D01*
X385500D01*
Y887500D02*
Y936500D01*
X362500Y887500D02*
X385500D01*
X383000Y903000D02*
Y921000D01*
X365000Y903000D02*
Y921000D01*
X477000Y818000D02*
Y866000D01*
X443000Y818000D02*
Y866000D01*
X477000Y904000D02*
Y952000D01*
X443000Y904000D02*
Y952000D01*
X437000Y904000D02*
Y952000D01*
X403000Y904000D02*
Y952000D01*
D14*
X552056Y817268D02*
Y802033D01*
X559674D01*
X562213Y804572D01*
Y809650D01*
X559674Y812190D01*
X552056D01*
X557134D02*
X562213Y817268D01*
X577448Y802033D02*
X572369Y804572D01*
X567291Y809650D01*
Y814729D01*
X569830Y817268D01*
X574909D01*
X577448Y814729D01*
Y812190D01*
X574909Y809650D01*
X567291D01*
X470360Y975106D02*
Y990341D01*
X462743D01*
X460203Y987802D01*
Y982723D01*
X462743Y980184D01*
X470360D01*
X465282D02*
X460203Y975106D01*
X447507D02*
Y990341D01*
X455125Y982723D01*
X444968D01*
X470360Y889000D02*
Y904235D01*
X462743D01*
X460203Y901696D01*
Y896618D01*
X462743Y894078D01*
X470360D01*
X465282D02*
X460203Y889000D01*
X455125Y901696D02*
X452586Y904235D01*
X447507D01*
X444968Y901696D01*
Y899157D01*
X447507Y896618D01*
X450047D01*
X447507D01*
X444968Y894078D01*
Y891539D01*
X447507Y889000D01*
X452586D01*
X455125Y891539D01*
X430530Y975106D02*
Y990341D01*
X422912D01*
X420373Y987802D01*
Y982723D01*
X422912Y980184D01*
X430530D01*
X425452D02*
X420373Y975106D01*
X405138D02*
X415295D01*
X405138Y985263D01*
Y987802D01*
X407677Y990341D01*
X412756D01*
X415295Y987802D01*
X425450Y889000D02*
Y904235D01*
X417832D01*
X415293Y901696D01*
Y896618D01*
X417832Y894078D01*
X425450D01*
X420372D02*
X415293Y889000D01*
X410215D02*
X405137D01*
X407676D01*
Y904235D01*
X410215Y901696D01*
X1700025Y773426D02*
X1702565Y775965D01*
X1707643D01*
X1710182Y773426D01*
Y763269D01*
X1707643Y760730D01*
X1702565D01*
X1700025Y763269D01*
X1684790Y760730D02*
X1694947D01*
X1684790Y770887D01*
Y773426D01*
X1687329Y775965D01*
X1692408D01*
X1694947Y773426D01*
X1679712Y775965D02*
X1669555D01*
Y773426D01*
X1679712Y763269D01*
Y760730D01*
X373379Y957262D02*
X375919Y959801D01*
X380997D01*
X383536Y957262D01*
Y947105D01*
X380997Y944566D01*
X375919D01*
X373379Y947105D01*
X368301Y944566D02*
X363223D01*
X365762D01*
Y959801D01*
X368301Y957262D01*
M02*
