G04*
G04 #@! TF.GenerationSoftware,Altium Limited,Altium Designer,23.4.1 (23)*
G04*
G04 Layer_Color=16711935*
%FSLAX44Y44*%
%MOMM*%
G71*
G04*
G04 #@! TF.SameCoordinates,A85FFBAE-4C14-42E1-BC73-6B9073B981DD*
G04*
G04*
G04 #@! TF.FilePolarity,Negative*
G04*
G01*
G75*
G04:AMPARAMS|DCode=20|XSize=1.3mm|YSize=1.9mm|CornerRadius=0.2mm|HoleSize=0mm|Usage=FLASHONLY|Rotation=90.000|XOffset=0mm|YOffset=0mm|HoleType=Round|Shape=RoundedRectangle|*
%AMROUNDEDRECTD20*
21,1,1.3000,1.5000,0,0,90.0*
21,1,0.9000,1.9000,0,0,90.0*
1,1,0.4000,0.7500,0.4500*
1,1,0.4000,0.7500,-0.4500*
1,1,0.4000,-0.7500,-0.4500*
1,1,0.4000,-0.7500,0.4500*
%
%ADD20ROUNDEDRECTD20*%
G04:AMPARAMS|DCode=26|XSize=0.9mm|YSize=1.1mm|CornerRadius=0.15mm|HoleSize=0mm|Usage=FLASHONLY|Rotation=0.000|XOffset=0mm|YOffset=0mm|HoleType=Round|Shape=RoundedRectangle|*
%AMROUNDEDRECTD26*
21,1,0.9000,0.8000,0,0,0.0*
21,1,0.6000,1.1000,0,0,0.0*
1,1,0.3000,0.3000,-0.4000*
1,1,0.3000,-0.3000,-0.4000*
1,1,0.3000,-0.3000,0.4000*
1,1,0.3000,0.3000,0.4000*
%
%ADD26ROUNDEDRECTD26*%
G04:AMPARAMS|DCode=39|XSize=1.9mm|YSize=1.9mm|CornerRadius=0.275mm|HoleSize=0mm|Usage=FLASHONLY|Rotation=0.000|XOffset=0mm|YOffset=0mm|HoleType=Round|Shape=RoundedRectangle|*
%AMROUNDEDRECTD39*
21,1,1.9000,1.3500,0,0,0.0*
21,1,1.3500,1.9000,0,0,0.0*
1,1,0.5500,0.6750,-0.6750*
1,1,0.5500,-0.6750,-0.6750*
1,1,0.5500,-0.6750,0.6750*
1,1,0.5500,0.6750,0.6750*
%
%ADD39ROUNDEDRECTD39*%
%ADD40C,1.9000*%
%ADD41C,2.6000*%
%ADD42C,2.1000*%
%ADD43O,5.1000X3.6000*%
%ADD44C,1.6000*%
%ADD45C,3.1000*%
G04:AMPARAMS|DCode=46|XSize=3.1mm|YSize=3.1mm|CornerRadius=0.425mm|HoleSize=0mm|Usage=FLASHONLY|Rotation=180.000|XOffset=0mm|YOffset=0mm|HoleType=Round|Shape=RoundedRectangle|*
%AMROUNDEDRECTD46*
21,1,3.1000,2.2500,0,0,180.0*
21,1,2.2500,3.1000,0,0,180.0*
1,1,0.8500,-1.1250,1.1250*
1,1,0.8500,1.1250,1.1250*
1,1,0.8500,1.1250,-1.1250*
1,1,0.8500,-1.1250,-1.1250*
%
%ADD46ROUNDEDRECTD46*%
%ADD47C,5.1000*%
G04:AMPARAMS|DCode=48|XSize=3.1mm|YSize=3.1mm|CornerRadius=0.425mm|HoleSize=0mm|Usage=FLASHONLY|Rotation=90.000|XOffset=0mm|YOffset=0mm|HoleType=Round|Shape=RoundedRectangle|*
%AMROUNDEDRECTD48*
21,1,3.1000,2.2500,0,0,90.0*
21,1,2.2500,3.1000,0,0,90.0*
1,1,0.8500,1.1250,1.1250*
1,1,0.8500,1.1250,-1.1250*
1,1,0.8500,-1.1250,-1.1250*
1,1,0.8500,-1.1250,1.1250*
%
%ADD48ROUNDEDRECTD48*%
%ADD49C,6.6000*%
%ADD103C,0.7000*%
%ADD116R,9.7000X11.1000*%
G04:AMPARAMS|DCode=117|XSize=1.5mm|YSize=3.5mm|CornerRadius=0.225mm|HoleSize=0mm|Usage=FLASHONLY|Rotation=270.000|XOffset=0mm|YOffset=0mm|HoleType=Round|Shape=RoundedRectangle|*
%AMROUNDEDRECTD117*
21,1,1.5000,3.0500,0,0,270.0*
21,1,1.0500,3.5000,0,0,270.0*
1,1,0.4500,-1.5250,-0.5250*
1,1,0.4500,-1.5250,0.5250*
1,1,0.4500,1.5250,0.5250*
1,1,0.4500,1.5250,-0.5250*
%
%ADD117ROUNDEDRECTD117*%
D20*
X570000Y828000D02*
D03*
Y860000D02*
D03*
X374000Y928000D02*
D03*
Y896000D02*
D03*
D26*
X1690000Y745000D02*
D03*
X1674000D02*
D03*
D39*
X1670000Y1120000D02*
D03*
Y1050000D02*
D03*
Y980000D02*
D03*
Y910000D02*
D03*
Y840000D02*
D03*
Y770000D02*
D03*
D40*
X1695000Y1120000D02*
D03*
Y1050000D02*
D03*
Y980000D02*
D03*
Y910000D02*
D03*
Y840000D02*
D03*
Y770000D02*
D03*
D41*
X590012Y919282D02*
D03*
X768228Y1097498D02*
D03*
D42*
X640302Y1071902D02*
D03*
Y1097302D02*
D03*
X614902D02*
D03*
Y1046502D02*
D03*
X589502Y1071902D02*
D03*
Y1046502D02*
D03*
X741902Y919502D02*
D03*
X716502D02*
D03*
Y944902D02*
D03*
X741902Y970302D02*
D03*
X767302Y944902D02*
D03*
X767400Y970400D02*
D03*
X1146002Y784996D02*
D03*
Y734996D02*
D03*
X1036002Y784996D02*
D03*
Y734996D02*
D03*
X1146002Y894996D02*
D03*
Y844996D02*
D03*
X1036002Y894996D02*
D03*
Y844996D02*
D03*
X1146002Y1004996D02*
D03*
Y954996D02*
D03*
X1036002Y1004996D02*
D03*
Y954996D02*
D03*
X1146002Y1114996D02*
D03*
Y1064996D02*
D03*
X1036002Y1114996D02*
D03*
Y1064996D02*
D03*
X1146002Y1224996D02*
D03*
Y1174996D02*
D03*
X1036002Y1224996D02*
D03*
Y1174996D02*
D03*
D43*
X526000Y1110000D02*
D03*
Y1046500D02*
D03*
D44*
X690000Y1225000D02*
D03*
Y1190000D02*
D03*
X600000Y1225000D02*
D03*
Y1190000D02*
D03*
X510000Y1225000D02*
D03*
Y1190000D02*
D03*
X420000Y1225000D02*
D03*
Y1190000D02*
D03*
X870000Y670000D02*
D03*
X800000D02*
D03*
X660000D02*
D03*
X590000D02*
D03*
X520000D02*
D03*
X526000Y1016000D02*
D03*
X360000Y1160000D02*
D03*
X730000Y670000D02*
D03*
X310000D02*
D03*
X1580000Y720000D02*
D03*
D45*
X363000Y1110000D02*
D03*
Y1026000D02*
D03*
Y1068000D02*
D03*
X418000Y1110000D02*
D03*
Y1068000D02*
D03*
X380000Y960000D02*
D03*
X310000Y809999D02*
D03*
X814600Y1200000D02*
D03*
X956000D02*
D03*
X814600Y1090000D02*
D03*
X956000D02*
D03*
X814600Y980000D02*
D03*
X956000D02*
D03*
X814600Y870000D02*
D03*
X956000D02*
D03*
X814600Y760000D02*
D03*
X956000D02*
D03*
D46*
X418000Y1026000D02*
D03*
D47*
X290000D02*
D03*
Y1110000D02*
D03*
D48*
X380000Y809999D02*
D03*
X310000Y960000D02*
D03*
D49*
X1710000Y1210000D02*
D03*
X310000D02*
D03*
Y610000D02*
D03*
X1210000D02*
D03*
D103*
X626000Y749000D02*
D03*
X622000Y759000D02*
D03*
X659000Y791000D02*
D03*
X633000Y735000D02*
D03*
X696000D02*
D03*
X613000Y914000D02*
D03*
D116*
X1431500Y636500D02*
D03*
D117*
X420000Y874000D02*
D03*
Y810000D02*
D03*
X460000Y874000D02*
D03*
Y810000D02*
D03*
Y960000D02*
D03*
Y896000D02*
D03*
X420000Y960000D02*
D03*
Y896000D02*
D03*
M02*
