M48
;Layer_Color=9474304
;FILE_FORMAT=4:4
METRIC,LZ
;TYPE=PLATED
T1F00S00C0.2000
T2F00S00C0.3000
T3F00S00C0.8000
T4F00S00C1.0000
T5F00S00C1.3000
T6F00S00C1.5000
T7F00S00C1.6000
T8F00S00C2.0000
T9F00S00C3.0000
%
T01
X01369Y00577
X01587Y00597
X00755Y0079
X00639Y00773
X00587Y00762
X00564Y0077
X00565Y00745
X00475Y00773
X00564Y00801
X00647Y00803
X00628Y00857
X00614Y00876
X00666Y00873
X00723Y0086
X0070075Y0083625
X00753Y00812
X00793Y00905
X0075Y0117
T02
X01602Y00632
Y00638
X01609
Y00632
X01616
Y00638
X01623
Y00632
X01475Y00636
X01461
X01447
X01432
X01418
X01404
X0139
Y0066
X01404
X01418
X01432
X01447
X01461
X01475
X01474Y00686
X0146
X01446
X01431
X01417
X01403
X01389
X0139Y00611
X01404
X01418
X01432
X01447
X01461
X01475
Y00585
X01461
X01447
X01432
X01418
X01404
X0139
X01307Y006
X01304Y00624
X01296
X01288
X0128
Y00632
X01288
Y0064
X0128
X01296
Y00632
X01304
Y0064
X01226794Y00626794
X0123375Y0061
X01226794Y00593206
X0121Y0058625
X01193206Y00593206
X01193206Y00626794
X0121Y0063375
X01325Y00762
Y00768
X01332
Y00762
X01339
Y00768
X01346
Y00762
X01398
Y00768
X01405
Y00762
X01412
Y00768
X01419
Y00762
X01499Y00687
Y0068
Y00673
X01507
Y0068
Y00687
X0118625Y0061
X01138Y0058
X00639Y00741
X00426Y00671
X00326794Y00626794
X0033375Y0061
X00326794Y00593206
X0031Y0058625
X00293206Y00593206
X0028625Y0061
X00293206Y00626794
X0031Y0063375
X00314Y00762
Y00772
Y00782
X00303
Y00772
Y00762
X00292
Y00772
Y00782
X00325
Y00772
Y00762
X0031Y0118625
X01325Y01098
Y01092
X01332
Y01098
X01339
Y01092
X01346
Y01098
X01398
Y01092
X01405
Y01098
X01412
Y01092
X01419
Y01098
Y00988
Y00982
X01412
Y00988
X01405
Y00982
X01398
Y00988
X01346
Y00982
X01339
Y00988
X01332
Y00982
X01325
Y00988
Y00878
Y00872
X01332
Y00878
X01339
Y00872
X01346
Y00878
X01398
Y00872
X01405
Y00878
X01412
Y00872
X01419
Y00878
X0171Y0118625
X01726794Y01193206
X0173375Y0121
X01726794Y01226794
X0171Y0123375
X01693206Y01226794
X0168625Y0121
X01693206Y01193206
X01419Y01202
Y01208
X01412
Y01202
X01405
Y01208
X01398
Y01202
X01346
Y01208
X01339
Y01202
X01332
Y01208
X01325
Y01202
X0033375Y0121
X00326794Y01193206
X00293206
X0028625Y0121
X00293206Y01226794
X0031Y0123375
X00326794Y01226794
T03
X0158Y0072
X0087Y0067
X008
X0073
X0066
X0059
X0052
X0031
X0036Y0116
X0042Y0119
X0051
X006
X0069
X00526Y01016
X0051Y01225
X006
X0069
X0042
T04
X0167Y0077
X01695
X01146002Y00784996
Y00734996
X01036002
Y00784996
X00741902Y00919502
X00716502
Y00944902
X00741902Y00970302
X007674Y009704
X00767302Y00944902
X00640302Y01071902
Y01097302
X00614902
Y01046502
X00589502
Y01071902
X01036002Y01064996
Y01114996
Y01174996
X01146002
Y01114996
Y01064996
Y01004996
Y00954996
Y00894996
Y00844996
X01036002
Y00894996
Y00954996
Y01004996
X0167Y0098
X01695
Y0091
X0167
Y0084
X01695
Y0105
X0167
Y0112
X01695
X01146002Y01224996
X01036002
T05
X00590012Y00919282
X00768228Y01097498
T06
X008146Y0076
X00956
X0038Y00809999
X0031
Y0096
X0038
X008146Y0098
Y0109
X00956
Y0098
Y0087
X008146
Y012
X00956
T07
X00363Y01026
Y01068
Y0111
X00418
Y01068
Y01026
T08
X00526Y010465
Y0111
T09
X0121Y0061
X0031
X0029Y01026
Y0111
X0171Y0121
X0031
M30
