G04*
G04 #@! TF.GenerationSoftware,Altium Limited,Altium Designer,23.4.1 (23)*
G04*
G04 Layer_Color=32896*
%FSLAX44Y44*%
%MOMM*%
G71*
G04*
G04 #@! TF.SameCoordinates,B3D957BC-C44E-4C16-AE0C-B47DF7116FB0*
G04*
G04*
G04 #@! TF.FilePolarity,Positive*
G04*
G01*
G75*
%ADD10C,0.1000*%
%ADD14C,0.2540*%
D10*
X437000Y818000D02*
Y866000D01*
X403000Y818000D02*
Y866000D01*
X1679000Y740000D02*
X1685000D01*
X1679000Y750000D02*
X1685000D01*
X1667500Y737500D02*
Y752500D01*
X1696500Y737500D02*
Y752500D01*
X1667500D02*
X1676000D01*
X1688000D02*
X1696500D01*
X1688000Y737500D02*
X1696500D01*
X1667500D02*
X1676000D01*
X561000Y835000D02*
Y853000D01*
X579000Y835000D02*
Y853000D01*
X558500Y819500D02*
Y868500D01*
X581500D01*
Y819500D02*
Y868500D01*
X558500Y819500D02*
X581500D01*
X362500Y887500D02*
Y936500D01*
X385500D01*
Y887500D02*
Y936500D01*
X362500Y887500D02*
X385500D01*
X383000Y903000D02*
Y921000D01*
X365000Y903000D02*
Y921000D01*
X477000Y818000D02*
Y866000D01*
X443000Y818000D02*
Y866000D01*
X477000Y904000D02*
Y952000D01*
X443000Y904000D02*
Y952000D01*
X437000Y904000D02*
Y952000D01*
X403000Y904000D02*
Y952000D01*
D14*
X430157Y779883D02*
Y795117D01*
X422539D01*
X420000Y792578D01*
Y787500D01*
X422539Y784961D01*
X430157D01*
X425078D02*
X420000Y779883D01*
X414922D02*
X409843D01*
X412382D01*
Y795117D01*
X414922Y792578D01*
X1650157Y747578D02*
X1652696Y750117D01*
X1657774D01*
X1660313Y747578D01*
Y737422D01*
X1657774Y734883D01*
X1652696D01*
X1650157Y737422D01*
X1634922Y734883D02*
X1645078D01*
X1634922Y745039D01*
Y747578D01*
X1637461Y750117D01*
X1642539D01*
X1645078Y747578D01*
X1629843Y750117D02*
X1619686D01*
Y747578D01*
X1629843Y737422D01*
Y734883D01*
X580196Y872383D02*
Y887617D01*
X572578D01*
X570039Y885078D01*
Y880000D01*
X572578Y877461D01*
X580196D01*
X575117D02*
X570039Y872383D01*
X554804Y887617D02*
X559883Y885078D01*
X564961Y880000D01*
Y874922D01*
X562422Y872383D01*
X557343D01*
X554804Y874922D01*
Y877461D01*
X557343Y880000D01*
X564961D01*
X470360Y975106D02*
Y990341D01*
X462743D01*
X460203Y987802D01*
Y982723D01*
X462743Y980184D01*
X470360D01*
X465282D02*
X460203Y975106D01*
X447507D02*
Y990341D01*
X455125Y982723D01*
X444968D01*
X472696Y779883D02*
Y795117D01*
X465078D01*
X462539Y792578D01*
Y787500D01*
X465078Y784961D01*
X472696D01*
X467617D02*
X462539Y779883D01*
X457461Y792578D02*
X454922Y795117D01*
X449843D01*
X447304Y792578D01*
Y790039D01*
X449843Y787500D01*
X452383D01*
X449843D01*
X447304Y784961D01*
Y782422D01*
X449843Y779883D01*
X454922D01*
X457461Y782422D01*
X430530Y975106D02*
Y990341D01*
X422912D01*
X420373Y987802D01*
Y982723D01*
X422912Y980184D01*
X430530D01*
X425452D02*
X420373Y975106D01*
X405138D02*
X415295D01*
X405138Y985263D01*
Y987802D01*
X407677Y990341D01*
X412756D01*
X415295Y987802D01*
X372500Y880078D02*
X375039Y882617D01*
X380117D01*
X382657Y880078D01*
Y869922D01*
X380117Y867383D01*
X375039D01*
X372500Y869922D01*
X367422Y867383D02*
X362343D01*
X364882D01*
Y882617D01*
X367422Y880078D01*
M02*
