G04*
G04 #@! TF.GenerationSoftware,Altium Limited,Altium Designer,23.4.1 (23)*
G04*
G04 Layer_Physical_Order=1*
G04 Layer_Color=255*
%FSLAX44Y44*%
%MOMM*%
G71*
G04*
G04 #@! TF.SameCoordinates,A3D1F448-45D9-4E2E-A63E-2579CCFEA50B*
G04*
G04*
G04 #@! TF.FilePolarity,Positive*
G04*
G01*
G75*
G04:AMPARAMS|DCode=48|XSize=2.032mm|YSize=0.6604mm|CornerRadius=0.0825mm|HoleSize=0mm|Usage=FLASHONLY|Rotation=90.000|XOffset=0mm|YOffset=0mm|HoleType=Round|Shape=RoundedRectangle|*
%AMROUNDEDRECTD48*
21,1,2.0320,0.4953,0,0,90.0*
21,1,1.8669,0.6604,0,0,90.0*
1,1,0.1651,0.2477,0.9335*
1,1,0.1651,0.2477,-0.9335*
1,1,0.1651,-0.2477,-0.9335*
1,1,0.1651,-0.2477,0.9335*
%
%ADD48ROUNDEDRECTD48*%
G04:AMPARAMS|DCode=49|XSize=2.08mm|YSize=3.81mm|CornerRadius=0.26mm|HoleSize=0mm|Usage=FLASHONLY|Rotation=0.000|XOffset=0mm|YOffset=0mm|HoleType=Round|Shape=RoundedRectangle|*
%AMROUNDEDRECTD49*
21,1,2.0800,3.2900,0,0,0.0*
21,1,1.5600,3.8100,0,0,0.0*
1,1,0.5200,0.7800,-1.6450*
1,1,0.5200,-0.7800,-1.6450*
1,1,0.5200,-0.7800,1.6450*
1,1,0.5200,0.7800,1.6450*
%
%ADD49ROUNDEDRECTD49*%
G04:AMPARAMS|DCode=50|XSize=11.4mm|YSize=11.6mm|CornerRadius=1.425mm|HoleSize=0mm|Usage=FLASHONLY|Rotation=0.000|XOffset=0mm|YOffset=0mm|HoleType=Round|Shape=RoundedRectangle|*
%AMROUNDEDRECTD50*
21,1,11.4000,8.7500,0,0,0.0*
21,1,8.5500,11.6000,0,0,0.0*
1,1,2.8500,4.2750,-4.3750*
1,1,2.8500,-4.2750,-4.3750*
1,1,2.8500,-4.2750,4.3750*
1,1,2.8500,4.2750,4.3750*
%
%ADD50ROUNDEDRECTD50*%
G04:AMPARAMS|DCode=51|XSize=2mm|YSize=1.6mm|CornerRadius=0.2mm|HoleSize=0mm|Usage=FLASHONLY|Rotation=90.000|XOffset=0mm|YOffset=0mm|HoleType=Round|Shape=RoundedRectangle|*
%AMROUNDEDRECTD51*
21,1,2.0000,1.2000,0,0,90.0*
21,1,1.6000,1.6000,0,0,90.0*
1,1,0.4000,0.6000,0.8000*
1,1,0.4000,0.6000,-0.8000*
1,1,0.4000,-0.6000,-0.8000*
1,1,0.4000,-0.6000,0.8000*
%
%ADD51ROUNDEDRECTD51*%
G04:AMPARAMS|DCode=52|XSize=2.032mm|YSize=0.6604mm|CornerRadius=0.0825mm|HoleSize=0mm|Usage=FLASHONLY|Rotation=180.000|XOffset=0mm|YOffset=0mm|HoleType=Round|Shape=RoundedRectangle|*
%AMROUNDEDRECTD52*
21,1,2.0320,0.4953,0,0,180.0*
21,1,1.8669,0.6604,0,0,180.0*
1,1,0.1651,-0.9335,0.2477*
1,1,0.1651,0.9335,0.2477*
1,1,0.1651,0.9335,-0.2477*
1,1,0.1651,-0.9335,-0.2477*
%
%ADD52ROUNDEDRECTD52*%
G04:AMPARAMS|DCode=53|XSize=0.8mm|YSize=1mm|CornerRadius=0.1mm|HoleSize=0mm|Usage=FLASHONLY|Rotation=0.000|XOffset=0mm|YOffset=0mm|HoleType=Round|Shape=RoundedRectangle|*
%AMROUNDEDRECTD53*
21,1,0.8000,0.8000,0,0,0.0*
21,1,0.6000,1.0000,0,0,0.0*
1,1,0.2000,0.3000,-0.4000*
1,1,0.2000,-0.3000,-0.4000*
1,1,0.2000,-0.3000,0.4000*
1,1,0.2000,0.3000,0.4000*
%
%ADD53ROUNDEDRECTD53*%
G04:AMPARAMS|DCode=54|XSize=1mm|YSize=1mm|CornerRadius=0.125mm|HoleSize=0mm|Usage=FLASHONLY|Rotation=0.000|XOffset=0mm|YOffset=0mm|HoleType=Round|Shape=RoundedRectangle|*
%AMROUNDEDRECTD54*
21,1,1.0000,0.7500,0,0,0.0*
21,1,0.7500,1.0000,0,0,0.0*
1,1,0.2500,0.3750,-0.3750*
1,1,0.2500,-0.3750,-0.3750*
1,1,0.2500,-0.3750,0.3750*
1,1,0.2500,0.3750,0.3750*
%
%ADD54ROUNDEDRECTD54*%
G04:AMPARAMS|DCode=55|XSize=0.8mm|YSize=1mm|CornerRadius=0.1mm|HoleSize=0mm|Usage=FLASHONLY|Rotation=270.000|XOffset=0mm|YOffset=0mm|HoleType=Round|Shape=RoundedRectangle|*
%AMROUNDEDRECTD55*
21,1,0.8000,0.8000,0,0,270.0*
21,1,0.6000,1.0000,0,0,270.0*
1,1,0.2000,-0.4000,-0.3000*
1,1,0.2000,-0.4000,0.3000*
1,1,0.2000,0.4000,0.3000*
1,1,0.2000,0.4000,-0.3000*
%
%ADD55ROUNDEDRECTD55*%
G04:AMPARAMS|DCode=56|XSize=1mm|YSize=1.6mm|CornerRadius=0.125mm|HoleSize=0mm|Usage=FLASHONLY|Rotation=270.000|XOffset=0mm|YOffset=0mm|HoleType=Round|Shape=RoundedRectangle|*
%AMROUNDEDRECTD56*
21,1,1.0000,1.3500,0,0,270.0*
21,1,0.7500,1.6000,0,0,270.0*
1,1,0.2500,-0.6750,-0.3750*
1,1,0.2500,-0.6750,0.3750*
1,1,0.2500,0.6750,0.3750*
1,1,0.2500,0.6750,-0.3750*
%
%ADD56ROUNDEDRECTD56*%
G04:AMPARAMS|DCode=57|XSize=1.2mm|YSize=1.4mm|CornerRadius=0.15mm|HoleSize=0mm|Usage=FLASHONLY|Rotation=0.000|XOffset=0mm|YOffset=0mm|HoleType=Round|Shape=RoundedRectangle|*
%AMROUNDEDRECTD57*
21,1,1.2000,1.1000,0,0,0.0*
21,1,0.9000,1.4000,0,0,0.0*
1,1,0.3000,0.4500,-0.5500*
1,1,0.3000,-0.4500,-0.5500*
1,1,0.3000,-0.4500,0.5500*
1,1,0.3000,0.4500,0.5500*
%
%ADD57ROUNDEDRECTD57*%
G04:AMPARAMS|DCode=58|XSize=2.8mm|YSize=2.6mm|CornerRadius=0.325mm|HoleSize=0mm|Usage=FLASHONLY|Rotation=270.000|XOffset=0mm|YOffset=0mm|HoleType=Round|Shape=RoundedRectangle|*
%AMROUNDEDRECTD58*
21,1,2.8000,1.9500,0,0,270.0*
21,1,2.1500,2.6000,0,0,270.0*
1,1,0.6500,-0.9750,-1.0750*
1,1,0.6500,-0.9750,1.0750*
1,1,0.6500,0.9750,1.0750*
1,1,0.6500,0.9750,-1.0750*
%
%ADD58ROUNDEDRECTD58*%
%ADD59R,4.0000X1.3000*%
%ADD60R,9.4000X10.8000*%
G04:AMPARAMS|DCode=61|XSize=2.8mm|YSize=2.6mm|CornerRadius=0.325mm|HoleSize=0mm|Usage=FLASHONLY|Rotation=0.000|XOffset=0mm|YOffset=0mm|HoleType=Round|Shape=RoundedRectangle|*
%AMROUNDEDRECTD61*
21,1,2.8000,1.9500,0,0,0.0*
21,1,2.1500,2.6000,0,0,0.0*
1,1,0.6500,1.0750,-0.9750*
1,1,0.6500,-1.0750,-0.9750*
1,1,0.6500,-1.0750,0.9750*
1,1,0.6500,1.0750,0.9750*
%
%ADD61ROUNDEDRECTD61*%
G04:AMPARAMS|DCode=62|XSize=2.7mm|YSize=3.6mm|CornerRadius=0.3375mm|HoleSize=0mm|Usage=FLASHONLY|Rotation=270.000|XOffset=0mm|YOffset=0mm|HoleType=Round|Shape=RoundedRectangle|*
%AMROUNDEDRECTD62*
21,1,2.7000,2.9250,0,0,270.0*
21,1,2.0250,3.6000,0,0,270.0*
1,1,0.6750,-1.4625,-1.0125*
1,1,0.6750,-1.4625,1.0125*
1,1,0.6750,1.4625,1.0125*
1,1,0.6750,1.4625,-1.0125*
%
%ADD62ROUNDEDRECTD62*%
G04:AMPARAMS|DCode=63|XSize=2.7mm|YSize=3.6mm|CornerRadius=0.3375mm|HoleSize=0mm|Usage=FLASHONLY|Rotation=0.000|XOffset=0mm|YOffset=0mm|HoleType=Round|Shape=RoundedRectangle|*
%AMROUNDEDRECTD63*
21,1,2.7000,2.9250,0,0,0.0*
21,1,2.0250,3.6000,0,0,0.0*
1,1,0.6750,1.0125,-1.4625*
1,1,0.6750,-1.0125,-1.4625*
1,1,0.6750,-1.0125,1.4625*
1,1,0.6750,1.0125,1.4625*
%
%ADD63ROUNDEDRECTD63*%
G04:AMPARAMS|DCode=64|XSize=1.4mm|YSize=3.4mm|CornerRadius=0.175mm|HoleSize=0mm|Usage=FLASHONLY|Rotation=0.000|XOffset=0mm|YOffset=0mm|HoleType=Round|Shape=RoundedRectangle|*
%AMROUNDEDRECTD64*
21,1,1.4000,3.0500,0,0,0.0*
21,1,1.0500,3.4000,0,0,0.0*
1,1,0.3500,0.5250,-1.5250*
1,1,0.3500,-0.5250,-1.5250*
1,1,0.3500,-0.5250,1.5250*
1,1,0.3500,0.5250,1.5250*
%
%ADD64ROUNDEDRECTD64*%
G04:AMPARAMS|DCode=65|XSize=2mm|YSize=1.6mm|CornerRadius=0.2mm|HoleSize=0mm|Usage=FLASHONLY|Rotation=180.000|XOffset=0mm|YOffset=0mm|HoleType=Round|Shape=RoundedRectangle|*
%AMROUNDEDRECTD65*
21,1,2.0000,1.2000,0,0,180.0*
21,1,1.6000,1.6000,0,0,180.0*
1,1,0.4000,-0.8000,0.6000*
1,1,0.4000,0.8000,0.6000*
1,1,0.4000,0.8000,-0.6000*
1,1,0.4000,-0.8000,-0.6000*
%
%ADD65ROUNDEDRECTD65*%
%ADD66C,1.0000*%
%ADD67C,0.5000*%
%ADD68C,0.7500*%
%ADD69C,1.5000*%
%ADD70C,2.0000*%
%ADD71R,2.1000X2.0000*%
%ADD72R,2.0000X3.4000*%
%ADD73R,4.9000X2.3000*%
%ADD74R,2.8000X5.0000*%
%ADD75R,2.7000X3.4000*%
%ADD76C,2.5000*%
%ADD77C,2.0000*%
%ADD78O,5.0000X3.5000*%
%ADD79C,1.5000*%
%ADD80C,3.0000*%
G04:AMPARAMS|DCode=81|XSize=3mm|YSize=3mm|CornerRadius=0.375mm|HoleSize=0mm|Usage=FLASHONLY|Rotation=180.000|XOffset=0mm|YOffset=0mm|HoleType=Round|Shape=RoundedRectangle|*
%AMROUNDEDRECTD81*
21,1,3.0000,2.2500,0,0,180.0*
21,1,2.2500,3.0000,0,0,180.0*
1,1,0.7500,-1.1250,1.1250*
1,1,0.7500,1.1250,1.1250*
1,1,0.7500,1.1250,-1.1250*
1,1,0.7500,-1.1250,-1.1250*
%
%ADD81ROUNDEDRECTD81*%
%ADD82C,5.0000*%
G04:AMPARAMS|DCode=83|XSize=3mm|YSize=3mm|CornerRadius=0.375mm|HoleSize=0mm|Usage=FLASHONLY|Rotation=90.000|XOffset=0mm|YOffset=0mm|HoleType=Round|Shape=RoundedRectangle|*
%AMROUNDEDRECTD83*
21,1,3.0000,2.2500,0,0,90.0*
21,1,2.2500,3.0000,0,0,90.0*
1,1,0.7500,1.1250,1.1250*
1,1,0.7500,1.1250,-1.1250*
1,1,0.7500,-1.1250,-1.1250*
1,1,0.7500,-1.1250,1.1250*
%
%ADD83ROUNDEDRECTD83*%
%ADD84C,1.8000*%
G04:AMPARAMS|DCode=85|XSize=1.8mm|YSize=1.8mm|CornerRadius=0.225mm|HoleSize=0mm|Usage=FLASHONLY|Rotation=0.000|XOffset=0mm|YOffset=0mm|HoleType=Round|Shape=RoundedRectangle|*
%AMROUNDEDRECTD85*
21,1,1.8000,1.3500,0,0,0.0*
21,1,1.3500,1.8000,0,0,0.0*
1,1,0.4500,0.6750,-0.6750*
1,1,0.4500,-0.6750,-0.6750*
1,1,0.4500,-0.6750,0.6750*
1,1,0.4500,0.6750,0.6750*
%
%ADD85ROUNDEDRECTD85*%
%ADD86C,6.5000*%
%ADD87C,0.6000*%
%ADD88C,0.5000*%
G36*
X878000Y820608D02*
X810323D01*
X766965Y863965D01*
X765146Y865181D01*
X763000Y865608D01*
X752737D01*
X751884Y866884D01*
X750561Y867768D01*
X749000Y868078D01*
X743000D01*
X741439Y867768D01*
X740116Y866884D01*
X739232Y865561D01*
X739120Y865000D01*
X736879D01*
X736768Y865561D01*
X735884Y866884D01*
X734561Y867768D01*
X733000Y868078D01*
X727000D01*
X725439Y867768D01*
X724116Y866884D01*
X723540Y866022D01*
X722130Y865926D01*
X722045Y866013D01*
X722093Y867466D01*
X722938Y868731D01*
X723235Y870223D01*
Y875176D01*
X722938Y876669D01*
X722093Y877934D01*
X720827Y878780D01*
X719334Y879077D01*
X700666D01*
X699173Y878780D01*
X698466Y878308D01*
X691700D01*
X689554Y877881D01*
X687735Y876665D01*
X680035Y868965D01*
X678819Y867146D01*
X678392Y865000D01*
Y842987D01*
X677116Y842134D01*
X676232Y840811D01*
X675922Y839250D01*
Y833250D01*
X676232Y831689D01*
X677116Y830366D01*
Y829634D01*
X676232Y828311D01*
X675922Y826750D01*
Y820750D01*
X676232Y819189D01*
X677116Y817866D01*
X678392Y817013D01*
Y801000D01*
X678819Y798854D01*
X680035Y797035D01*
X686922Y790148D01*
Y786000D01*
X687232Y784439D01*
X688116Y783116D01*
X689439Y782232D01*
X691000Y781922D01*
X697000D01*
X698561Y782232D01*
X699884Y783116D01*
X700768Y784439D01*
X700879Y785000D01*
X703121D01*
X703232Y784439D01*
X704116Y783116D01*
X705439Y782232D01*
X707000Y781922D01*
X713000D01*
X714561Y782232D01*
X715884Y783116D01*
X716737Y784392D01*
X723263D01*
X724116Y783116D01*
X725439Y782232D01*
X727000Y781922D01*
X733000D01*
X734561Y782232D01*
X735884Y783116D01*
X736768Y784439D01*
X736879Y785000D01*
X739120D01*
X739232Y784439D01*
X740116Y783116D01*
X741439Y782232D01*
X743000Y781922D01*
X749000D01*
X750561Y782232D01*
X751884Y783116D01*
X752737Y784392D01*
X755000D01*
X755542Y784500D01*
X756094D01*
X756604Y784711D01*
X757146Y784819D01*
X757605Y785126D01*
X758115Y785337D01*
X758506Y785728D01*
X758965Y786035D01*
X759272Y786494D01*
X759663Y786885D01*
X759874Y787395D01*
X760181Y787854D01*
X760289Y788396D01*
X760500Y788906D01*
Y789458D01*
X760608Y790000D01*
X760500Y790542D01*
Y791094D01*
X760289Y791604D01*
X760181Y792146D01*
X759874Y792605D01*
X759663Y793115D01*
X759272Y793506D01*
X758965Y793965D01*
X758506Y794272D01*
X758115Y794663D01*
X757605Y794874D01*
X757146Y795181D01*
X756604Y795289D01*
X756094Y795500D01*
X755542D01*
X755000Y795608D01*
X752737D01*
X751884Y796884D01*
X750561Y797768D01*
X749000Y798078D01*
X743000D01*
X741439Y797768D01*
X740116Y796884D01*
X739232Y795561D01*
X739120Y795000D01*
X736879D01*
X736768Y795561D01*
X735884Y796884D01*
X735608Y797068D01*
Y803380D01*
X736814Y804186D01*
X737753Y805592D01*
X738083Y807250D01*
Y814750D01*
X737753Y816408D01*
X736814Y817814D01*
X735408Y818753D01*
X733750Y819083D01*
X726250D01*
X724592Y818753D01*
X723186Y817814D01*
X722247Y816408D01*
X721917Y814750D01*
Y807250D01*
X722247Y805592D01*
X723186Y804186D01*
X724392Y803380D01*
Y797068D01*
X724116Y796884D01*
X723263Y795608D01*
X716737D01*
X715884Y796884D01*
X714561Y797768D01*
X713000Y798078D01*
X707000D01*
X705439Y797768D01*
X704116Y796884D01*
X703232Y795561D01*
X703121Y795000D01*
X700879D01*
X700768Y795561D01*
X699884Y796884D01*
X698561Y797768D01*
X697000Y798078D01*
X694852D01*
X689608Y803323D01*
Y817013D01*
X690884Y817866D01*
X691768Y819189D01*
X692078Y820750D01*
Y826750D01*
X691768Y828311D01*
X691055Y829378D01*
X691369Y830297D01*
X691621Y830642D01*
X698427D01*
X698917Y830153D01*
Y826250D01*
X699247Y824592D01*
X700186Y823186D01*
X701592Y822247D01*
X703250Y821917D01*
X716750D01*
X718408Y822247D01*
X719814Y823186D01*
X720620Y824392D01*
X722380D01*
X723186Y823186D01*
X724592Y822247D01*
X726250Y821917D01*
X733750D01*
X735408Y822247D01*
X736814Y823186D01*
X737753Y824592D01*
X738083Y826250D01*
Y833750D01*
X737753Y835408D01*
X736814Y836814D01*
X735408Y837753D01*
X733750Y838083D01*
X726250D01*
X724592Y837753D01*
X723186Y836814D01*
X722380Y835608D01*
X720620D01*
X719814Y836814D01*
X718408Y837753D01*
X716750Y838083D01*
X706847D01*
X704715Y840215D01*
X704256Y840522D01*
X703866Y840913D01*
X703355Y841124D01*
X702896Y841431D01*
X702354Y841539D01*
X701844Y841750D01*
X701292D01*
X700750Y841858D01*
X691068D01*
X690884Y842134D01*
X689608Y842987D01*
Y862677D01*
X694023Y867092D01*
X697558D01*
X697955Y866687D01*
X697907Y865235D01*
X697062Y863969D01*
X696765Y862477D01*
Y857523D01*
X697062Y856031D01*
X697907Y854765D01*
X699173Y853920D01*
X700666Y853623D01*
X719334D01*
X720827Y853920D01*
X721534Y854392D01*
X723263D01*
X724116Y853116D01*
X725439Y852232D01*
X727000Y851922D01*
X733000D01*
X734561Y852232D01*
X735884Y853116D01*
X736768Y854439D01*
X736879Y855000D01*
X739120D01*
X739232Y854439D01*
X740116Y853116D01*
X741439Y852232D01*
X743000Y851922D01*
X749000D01*
X750561Y852232D01*
X751884Y853116D01*
X752737Y854392D01*
X760677D01*
X804035Y811035D01*
X805854Y809819D01*
X808000Y809392D01*
X878000D01*
Y737000D01*
X858000Y717000D01*
X603590D01*
X603104Y718173D01*
X603965Y719035D01*
X605181Y720854D01*
X605608Y723000D01*
Y732586D01*
X606080Y733293D01*
X606212Y733958D01*
X607507D01*
X607562Y733683D01*
X608186Y732748D01*
X609121Y732124D01*
X610224Y731905D01*
X611200D01*
Y744120D01*
Y756335D01*
X610224D01*
X609121Y756116D01*
X608186Y755492D01*
X607562Y754557D01*
X607507Y754282D01*
X606212D01*
X606080Y754947D01*
X605234Y756212D01*
X603969Y757058D01*
X602477Y757355D01*
X597523D01*
X596031Y757058D01*
X594766Y756212D01*
X594762Y756207D01*
X593302Y756110D01*
X592608Y756841D01*
Y762000D01*
X592500Y762542D01*
Y763094D01*
X592488Y763122D01*
X593006Y764101D01*
X593427Y764392D01*
X605000D01*
X607146Y764819D01*
X608965Y766035D01*
X616665Y773735D01*
X617881Y775554D01*
X618308Y777700D01*
Y788466D01*
X618780Y789173D01*
X619077Y790666D01*
Y809334D01*
X618780Y810827D01*
X617934Y812093D01*
X616669Y812938D01*
X615177Y813235D01*
X610224D01*
X608731Y812938D01*
X607466Y812093D01*
X606013Y812045D01*
X605608Y812442D01*
Y816902D01*
X606000D01*
X607951Y817290D01*
X609605Y818395D01*
X610710Y820049D01*
X610985Y821431D01*
X621470D01*
X622256Y820256D01*
X623744Y819261D01*
X625500Y818912D01*
X634500D01*
X636256Y819261D01*
X637744Y820256D01*
X638739Y821744D01*
X638790Y822000D01*
X642293D01*
X642977Y820977D01*
X644134Y820203D01*
X645500Y819931D01*
X648500D01*
Y829000D01*
Y838069D01*
X645500D01*
X644134Y837797D01*
X642977Y837023D01*
X642293Y836000D01*
X638790D01*
X638739Y836256D01*
X637744Y837744D01*
X636256Y838739D01*
X634500Y839088D01*
X625500D01*
X623744Y838739D01*
X622256Y837744D01*
X622139Y837569D01*
X611098D01*
Y838000D01*
X610710Y839951D01*
X609605Y841605D01*
X607951Y842710D01*
X606000Y843098D01*
X594000D01*
X592049Y842710D01*
X590395Y841605D01*
X589290Y839951D01*
X588902Y838000D01*
Y822000D01*
X589290Y820049D01*
X590395Y818395D01*
X592049Y817290D01*
X594000Y816902D01*
X594392D01*
Y811534D01*
X593920Y810827D01*
X593623Y809334D01*
Y790666D01*
X593920Y789173D01*
X594766Y787907D01*
X596031Y787062D01*
X597523Y786765D01*
X602477D01*
X603969Y787062D01*
X605234Y787907D01*
X606687Y787955D01*
X607092Y787558D01*
Y780023D01*
X602677Y775608D01*
X564000D01*
X563458Y775500D01*
X562906D01*
X562396Y775289D01*
X561854Y775181D01*
X561395Y774874D01*
X560885Y774663D01*
X560494Y774272D01*
X560035Y773965D01*
X559728Y773506D01*
X559337Y773115D01*
X559126Y772605D01*
X558819Y772146D01*
X558711Y771604D01*
X558500Y771094D01*
Y770542D01*
X558392Y770000D01*
X558500Y769458D01*
Y768906D01*
X558711Y768396D01*
X558819Y767854D01*
X559126Y767395D01*
X559337Y766885D01*
X559728Y766494D01*
X560035Y766035D01*
X560494Y765728D01*
X560885Y765337D01*
X561395Y765126D01*
X561854Y764819D01*
X562396Y764711D01*
X562906Y764500D01*
X563458D01*
X564000Y764392D01*
X580573D01*
X580994Y764101D01*
X581512Y763122D01*
X581500Y763094D01*
Y762542D01*
X581392Y762000D01*
Y756167D01*
X580122Y755782D01*
X579835Y756212D01*
X578569Y757058D01*
X577076Y757355D01*
X572123D01*
X570631Y757058D01*
X569366Y756212D01*
X568520Y754947D01*
X568223Y753455D01*
Y750608D01*
X565000D01*
X564458Y750500D01*
X563906D01*
X563396Y750289D01*
X562854Y750181D01*
X562395Y749874D01*
X561884Y749663D01*
X561494Y749272D01*
X561035Y748965D01*
X560728Y748506D01*
X560337Y748115D01*
X560126Y747605D01*
X559819Y747146D01*
X559711Y746604D01*
X559500Y746094D01*
Y745542D01*
X559392Y745000D01*
X559500Y744458D01*
Y743906D01*
X559711Y743396D01*
X559819Y742854D01*
X560126Y742395D01*
X560337Y741885D01*
X560728Y741494D01*
X561035Y741035D01*
X561494Y740728D01*
X561884Y740337D01*
X562395Y740126D01*
X562854Y739819D01*
X563396Y739711D01*
X563906Y739500D01*
X564458D01*
X565000Y739392D01*
X568223D01*
Y734786D01*
X568520Y733293D01*
X569366Y732028D01*
X570631Y731182D01*
X572123Y730885D01*
X577076D01*
X578569Y731182D01*
X579835Y732028D01*
X580186Y732554D01*
X581714D01*
X582066Y732028D01*
X583331Y731182D01*
X584823Y730885D01*
X589776D01*
X591269Y731182D01*
X592534Y732028D01*
X593987Y732075D01*
X594392Y731678D01*
Y725323D01*
X592677Y723608D01*
X570323D01*
X559965Y733965D01*
X558146Y735181D01*
X556000Y735608D01*
X554737D01*
X553884Y736884D01*
X552561Y737768D01*
X551000Y738078D01*
X545000D01*
X543439Y737768D01*
X542116Y736884D01*
X541232Y735561D01*
X541121Y735000D01*
X539059D01*
Y737733D01*
X545163Y743837D01*
X545826Y744829D01*
X546059Y746000D01*
X546059Y746000D01*
Y819000D01*
X546059Y819000D01*
X545826Y820171D01*
X545163Y821163D01*
X539163Y827163D01*
X538171Y827826D01*
X537000Y828059D01*
X537000Y828059D01*
X514000D01*
X512830Y827826D01*
X511837Y827163D01*
X504837Y820163D01*
X504174Y819171D01*
X503941Y818000D01*
X503941Y818000D01*
Y757000D01*
X459745D01*
X459724Y757103D01*
X458675Y758674D01*
X457103Y759724D01*
X455250Y760093D01*
X444750D01*
X444578Y760059D01*
X429422D01*
X429250Y760093D01*
X418750D01*
X416897Y759724D01*
X415326Y758674D01*
X414276Y757103D01*
X414255Y757000D01*
X368591D01*
X367954Y757954D01*
X366713Y758782D01*
X365250Y759073D01*
X361500D01*
Y740000D01*
Y720927D01*
X365250D01*
X366713Y721218D01*
X367954Y722046D01*
X368591Y723000D01*
X414255D01*
X414276Y722897D01*
X415326Y721326D01*
X416897Y720276D01*
X418750Y719907D01*
X429250D01*
X429422Y719941D01*
X444578D01*
X444750Y719907D01*
X455250D01*
X457103Y720276D01*
X458675Y721326D01*
X459724Y722897D01*
X459745Y723000D01*
X504255D01*
X504276Y722897D01*
X505326Y721326D01*
X506897Y720276D01*
X508750Y719907D01*
X514392D01*
Y717000D01*
X260000D01*
X260000Y1210000D01*
X260000Y1210000D01*
X260000Y1210000D01*
X260000Y1213277D01*
X260856Y1219775D01*
X262552Y1226106D01*
X265060Y1232162D01*
X268337Y1237838D01*
X272327Y1243038D01*
X276962Y1247673D01*
X282162Y1251663D01*
X287838Y1254940D01*
X293894Y1257448D01*
X300224Y1259144D01*
X306723Y1260000D01*
X310000Y1260000D01*
X878000Y1260000D01*
Y820608D01*
D02*
G37*
G36*
X1710000Y1260000D02*
X1713277Y1260000D01*
X1719776Y1259145D01*
X1726107Y1257448D01*
X1732162Y1254940D01*
X1737838Y1251663D01*
X1743038Y1247673D01*
X1747673Y1243038D01*
X1751663Y1237838D01*
X1754940Y1232162D01*
X1757448Y1226106D01*
X1759144Y1219775D01*
X1760000Y1213277D01*
X1760000Y1210000D01*
X1760000D01*
X1760000Y1210000D01*
Y1085000D01*
X1617000D01*
X1552000Y1150000D01*
X893000D01*
Y1260000D01*
X1710000Y1260000D01*
D02*
G37*
G36*
X1613000Y1075000D02*
X1760000D01*
Y1015000D01*
X1618000D01*
X1593000Y1040000D01*
X892000D01*
Y1140000D01*
X1548000D01*
X1613000Y1075000D01*
D02*
G37*
G36*
X1613000Y1005000D02*
X1760000D01*
Y945000D01*
X1613000D01*
X1598000Y930000D01*
X893000D01*
Y1030000D01*
X1588000D01*
X1613000Y1005000D01*
D02*
G37*
G36*
X1760000Y875000D02*
X1613000D01*
X1558000Y820000D01*
X935417D01*
X935146Y820181D01*
X933000Y820608D01*
X893000D01*
Y920000D01*
X1602000D01*
X1617000Y935000D01*
X1760000D01*
Y875000D01*
D02*
G37*
G36*
X1216000Y743000D02*
X1200000D01*
X1177000Y720000D01*
X995000D01*
X970000Y745000D01*
X956000D01*
Y775000D01*
X986000Y775000D01*
X1013000Y748000D01*
X1164000D01*
X1193000Y777000D01*
X1216000D01*
Y743000D01*
D02*
G37*
G36*
X1760000Y585400D02*
Y582898D01*
X1759024Y577991D01*
X1757109Y573369D01*
X1754330Y569208D01*
X1750791Y565671D01*
X1746631Y562891D01*
X1742009Y560976D01*
X1737102Y560000D01*
X1155000D01*
Y679000D01*
X1118232Y715768D01*
X1118718Y716941D01*
X1177000D01*
X1178171Y717174D01*
X1179163Y717837D01*
X1179163Y717837D01*
X1201267Y739941D01*
X1202533D01*
X1203388Y739370D01*
X1205875Y738875D01*
X1226125D01*
X1228612Y739370D01*
X1230721Y740779D01*
X1232130Y742888D01*
X1232625Y745375D01*
Y774625D01*
X1232130Y777112D01*
X1230721Y779221D01*
X1228612Y780630D01*
X1226125Y781125D01*
X1205875D01*
X1203388Y780630D01*
X1202533Y780059D01*
X1193000D01*
X1193000Y780059D01*
X1191830Y779826D01*
X1190837Y779163D01*
X1162733Y751059D01*
X1014267D01*
X988163Y777163D01*
X987170Y777826D01*
X986000Y778059D01*
X986000Y778059D01*
X961608Y778059D01*
Y792000D01*
X961181Y794146D01*
X959965Y795965D01*
X947104Y808827D01*
X947590Y810000D01*
X1562000D01*
X1617000Y865000D01*
X1760000D01*
Y585400D01*
D02*
G37*
G36*
X543000Y819000D02*
Y746000D01*
X536000Y739000D01*
Y724000D01*
X535000Y723000D01*
X513000D01*
X507000Y730000D01*
Y818000D01*
X514000Y825000D01*
X537000D01*
X543000Y819000D01*
D02*
G37*
G36*
X950392Y789677D02*
Y777160D01*
X947474Y775951D01*
X944526Y773981D01*
X942019Y771474D01*
X940049Y768526D01*
X938692Y765250D01*
X938000Y761773D01*
Y758227D01*
X938692Y754750D01*
X940049Y751474D01*
X942019Y748526D01*
X944526Y746019D01*
X947474Y744049D01*
X950750Y742692D01*
X954227Y742000D01*
X955705D01*
X956000Y741941D01*
X968733D01*
X991501Y719173D01*
X991015Y718000D01*
X913000D01*
X893000Y738000D01*
Y809392D01*
X930677D01*
X950392Y789677D01*
D02*
G37*
%LPC*%
G36*
X421500Y1234433D02*
Y1226500D01*
X429433D01*
X428853Y1228667D01*
X427602Y1230833D01*
X425833Y1232602D01*
X423667Y1233853D01*
X421500Y1234433D01*
D02*
G37*
G36*
X691500D02*
Y1226500D01*
X699433D01*
X698853Y1228667D01*
X697602Y1230833D01*
X695833Y1232602D01*
X693667Y1233853D01*
X691500Y1234433D01*
D02*
G37*
G36*
X511500D02*
Y1226500D01*
X519433D01*
X518853Y1228667D01*
X517602Y1230833D01*
X515833Y1232602D01*
X513667Y1233853D01*
X511500Y1234433D01*
D02*
G37*
G36*
X418500D02*
X416333Y1233853D01*
X414167Y1232602D01*
X412398Y1230833D01*
X411147Y1228667D01*
X410567Y1226500D01*
X418500D01*
Y1234433D01*
D02*
G37*
G36*
X688500D02*
X686333Y1233853D01*
X684167Y1232602D01*
X682398Y1230833D01*
X681147Y1228667D01*
X680567Y1226500D01*
X688500D01*
Y1234433D01*
D02*
G37*
G36*
X508500D02*
X506333Y1233853D01*
X504167Y1232602D01*
X502398Y1230833D01*
X501147Y1228667D01*
X500567Y1226500D01*
X508500D01*
Y1234433D01*
D02*
G37*
G36*
X601500Y1234433D02*
Y1226500D01*
X609433D01*
X608853Y1228667D01*
X607602Y1230833D01*
X605833Y1232602D01*
X603667Y1233853D01*
X601500Y1234433D01*
D02*
G37*
G36*
X598500Y1234433D02*
X596333Y1233853D01*
X594167Y1232602D01*
X592398Y1230833D01*
X591147Y1228667D01*
X590567Y1226500D01*
X598500D01*
Y1234433D01*
D02*
G37*
G36*
X429433Y1223500D02*
X420000D01*
X410567D01*
X411147Y1221333D01*
X412398Y1219167D01*
X414167Y1217398D01*
X415150Y1216830D01*
X414810Y1215560D01*
X411473D01*
X411473Y1215560D01*
X407944Y1215213D01*
X404552Y1214183D01*
X401424Y1212512D01*
X398684Y1210263D01*
X398684Y1210263D01*
X390210Y1201789D01*
X387961Y1199049D01*
X386290Y1195922D01*
X385261Y1192529D01*
X384913Y1189000D01*
Y1169808D01*
X383643Y1169556D01*
X382598Y1172079D01*
X379807Y1176255D01*
X376255Y1179807D01*
X372079Y1182598D01*
X367438Y1184520D01*
X362511Y1185500D01*
X357489D01*
X352562Y1184520D01*
X347921Y1182598D01*
X343745Y1179807D01*
X340193Y1176255D01*
X337402Y1172079D01*
X335480Y1167438D01*
X334500Y1162512D01*
Y1157488D01*
X335480Y1152562D01*
X337402Y1147921D01*
X340193Y1143745D01*
X343745Y1140193D01*
X347921Y1137402D01*
X352562Y1135480D01*
X357489Y1134500D01*
X362511D01*
X367438Y1135480D01*
X372079Y1137402D01*
X376255Y1140193D01*
X379807Y1143745D01*
X382598Y1147921D01*
X383643Y1150444D01*
X384913Y1150192D01*
X384913Y1037434D01*
X384895Y1037250D01*
Y1014750D01*
X384913Y1014566D01*
Y1004633D01*
X372504Y992224D01*
X372272Y992187D01*
X367332Y990582D01*
X362704Y988224D01*
X362515Y988087D01*
X335019D01*
X333392Y989422D01*
X329614Y991442D01*
X325514Y992685D01*
X321250Y993105D01*
X298750D01*
X294486Y992685D01*
X290386Y991442D01*
X286608Y989422D01*
X283296Y986704D01*
X280578Y983392D01*
X278558Y979614D01*
X277315Y975514D01*
X276895Y971250D01*
Y948750D01*
X277315Y944486D01*
X278558Y940386D01*
X280578Y936608D01*
X283296Y933296D01*
X286608Y930578D01*
X290386Y928558D01*
X294486Y927315D01*
X298750Y926895D01*
X321250D01*
X325514Y927315D01*
X329614Y928558D01*
X333392Y930578D01*
X335019Y931913D01*
X362515D01*
X362704Y931776D01*
X367332Y929418D01*
X372272Y927813D01*
X377403Y927000D01*
X382597D01*
X387728Y927813D01*
X392668Y929418D01*
X397296Y931776D01*
X401498Y934829D01*
X405171Y938502D01*
X408224Y942704D01*
X410582Y947332D01*
X412187Y952272D01*
X412224Y952504D01*
X423740Y964019D01*
X424913Y963533D01*
Y953910D01*
X424900Y953750D01*
Y912578D01*
X424156Y912352D01*
X420160Y910216D01*
X416658Y907342D01*
X407658Y898342D01*
X404784Y894840D01*
X402648Y890844D01*
X401333Y886509D01*
X400889Y882000D01*
Y868414D01*
X399433Y865691D01*
X398289Y861921D01*
X397903Y858000D01*
Y843287D01*
X396633Y842345D01*
X395514Y842685D01*
X391250Y843105D01*
X368750D01*
X364486Y842685D01*
X360386Y841441D01*
X356608Y839421D01*
X353296Y836703D01*
X350578Y833391D01*
X348558Y829613D01*
X347315Y825513D01*
X346895Y821249D01*
Y798749D01*
X347315Y794486D01*
X348558Y790386D01*
X350578Y786607D01*
X353296Y783295D01*
X356608Y780577D01*
X360386Y778558D01*
X364486Y777314D01*
X368750Y776894D01*
X391250D01*
X395514Y777314D01*
X399614Y778558D01*
X403392Y780577D01*
X406704Y783295D01*
X407591Y784376D01*
X408545D01*
X410309Y783433D01*
X414079Y782289D01*
X418000Y781903D01*
X430000D01*
X433921Y782289D01*
X437691Y783433D01*
X441165Y785290D01*
X444211Y787789D01*
X446710Y790835D01*
X448567Y794309D01*
X449711Y798079D01*
X450097Y802000D01*
Y818000D01*
X449711Y821921D01*
X448567Y825691D01*
X446710Y829165D01*
X446025Y830000D01*
X446710Y830835D01*
X448567Y834309D01*
X448810Y835110D01*
X452189Y834299D01*
X457250Y833900D01*
X542750D01*
X547811Y834299D01*
X552747Y835484D01*
X557436Y837426D01*
X561765Y840079D01*
X565625Y843375D01*
X568921Y847235D01*
X571574Y851564D01*
X573516Y856253D01*
X574701Y861189D01*
X575100Y866250D01*
Y910916D01*
X575318Y911088D01*
X577023Y910823D01*
X577972Y909401D01*
X580131Y907243D01*
X582670Y905546D01*
X585491Y904378D01*
X588485Y903782D01*
X591539D01*
X594533Y904378D01*
X597354Y905546D01*
X599893Y907243D01*
X602052Y909401D01*
X603748Y911940D01*
X604916Y914761D01*
X605512Y917756D01*
Y920809D01*
X604916Y923803D01*
X603748Y926624D01*
X602052Y929163D01*
X599893Y931322D01*
X597354Y933018D01*
X594533Y934186D01*
X591539Y934782D01*
X588485D01*
X585491Y934186D01*
X582670Y933018D01*
X580131Y931322D01*
X577972Y929163D01*
X577023Y927741D01*
X575318Y927476D01*
X575100Y927649D01*
Y953750D01*
X575087Y953910D01*
Y999000D01*
X575087Y999000D01*
X574739Y1002529D01*
X573710Y1005922D01*
X572039Y1009049D01*
X569790Y1011789D01*
X569087Y1012492D01*
X569087Y1046211D01*
X569110Y1046500D01*
X569087Y1046788D01*
Y1054000D01*
X569087Y1054000D01*
X568740Y1057529D01*
X567710Y1060922D01*
X566039Y1064049D01*
X563789Y1066789D01*
X553790Y1076789D01*
X553789Y1076789D01*
X553088Y1077365D01*
Y1078635D01*
X553789Y1079211D01*
X553790Y1079211D01*
X563789Y1089211D01*
X566039Y1091951D01*
X567710Y1095078D01*
X568740Y1098471D01*
X569087Y1102000D01*
Y1109712D01*
X569110Y1110000D01*
X569087Y1110288D01*
Y1121508D01*
X584492Y1136913D01*
X692000D01*
X692000Y1136913D01*
X695529Y1137260D01*
X698922Y1138290D01*
X702049Y1139961D01*
X704790Y1142210D01*
X704790Y1142211D01*
X711789Y1149211D01*
X714039Y1151951D01*
X715710Y1155078D01*
X716740Y1158471D01*
X717087Y1162000D01*
Y1193000D01*
X716740Y1196529D01*
X715710Y1199922D01*
X714039Y1203049D01*
X711789Y1205789D01*
X711789Y1205790D01*
X707316Y1210263D01*
X704576Y1212512D01*
X701449Y1214183D01*
X698055Y1215213D01*
X695093Y1215505D01*
X694811Y1216808D01*
X695833Y1217398D01*
X697602Y1219167D01*
X698853Y1221333D01*
X699433Y1223500D01*
X690000D01*
X680567D01*
X681147Y1221333D01*
X682398Y1219167D01*
X684167Y1217398D01*
X685151Y1216830D01*
X684810Y1215560D01*
X605190D01*
X604850Y1216830D01*
X605833Y1217398D01*
X607602Y1219167D01*
X608853Y1221333D01*
X609433Y1223500D01*
X600000D01*
X590567D01*
X591147Y1221333D01*
X592398Y1219167D01*
X594167Y1217398D01*
X595150Y1216830D01*
X594810Y1215560D01*
X515190D01*
X514850Y1216830D01*
X515833Y1217398D01*
X517602Y1219167D01*
X518853Y1221333D01*
X519433Y1223500D01*
X510000D01*
X500567D01*
X501147Y1221333D01*
X502398Y1219167D01*
X504167Y1217398D01*
X505150Y1216830D01*
X504810Y1215560D01*
X425190D01*
X424850Y1216830D01*
X425833Y1217398D01*
X427602Y1219167D01*
X428853Y1221333D01*
X429433Y1223500D01*
D02*
G37*
G36*
X312794Y1245500D02*
X307206D01*
X301687Y1244626D01*
X296373Y1242899D01*
X291394Y1240362D01*
X286873Y1237078D01*
X282922Y1233127D01*
X279638Y1228606D01*
X277101Y1223627D01*
X275374Y1218313D01*
X274500Y1212794D01*
Y1207206D01*
X275374Y1201687D01*
X277101Y1196373D01*
X279638Y1191394D01*
X282922Y1186873D01*
X286873Y1182922D01*
X291394Y1179638D01*
X296373Y1177101D01*
X301687Y1175374D01*
X307206Y1174500D01*
X312794D01*
X318313Y1175374D01*
X323627Y1177101D01*
X328606Y1179638D01*
X333127Y1182922D01*
X337078Y1186873D01*
X340362Y1191394D01*
X342899Y1196373D01*
X344626Y1201687D01*
X345500Y1207206D01*
Y1212794D01*
X344626Y1218313D01*
X342899Y1223627D01*
X340362Y1228606D01*
X337078Y1233127D01*
X333127Y1237078D01*
X328606Y1240362D01*
X323627Y1242899D01*
X318313Y1244626D01*
X312794Y1245500D01*
D02*
G37*
G36*
X817198Y1233000D02*
X812003D01*
X806873Y1232187D01*
X801933Y1230582D01*
X797305Y1228224D01*
X793102Y1225171D01*
X789429Y1221498D01*
X786376Y1217296D01*
X784018Y1212668D01*
X782413Y1207728D01*
X781600Y1202597D01*
Y1197403D01*
X782413Y1192272D01*
X784018Y1187332D01*
X786376Y1182704D01*
X789429Y1178502D01*
X793102Y1174829D01*
X797305Y1171776D01*
X801933Y1169418D01*
X806873Y1167813D01*
X812003Y1167000D01*
X817198D01*
X822328Y1167813D01*
X827268Y1169418D01*
X831896Y1171776D01*
X836098Y1174829D01*
X839771Y1178502D01*
X842824Y1182704D01*
X845183Y1187332D01*
X846788Y1192272D01*
X847600Y1197403D01*
Y1202597D01*
X846788Y1207728D01*
X845183Y1212668D01*
X842824Y1217296D01*
X839771Y1221498D01*
X836098Y1225171D01*
X831896Y1228224D01*
X827268Y1230582D01*
X822328Y1232187D01*
X817198Y1233000D01*
D02*
G37*
G36*
X751094Y1175500D02*
X748906D01*
X746885Y1174663D01*
X745337Y1173115D01*
X744500Y1171094D01*
Y1168906D01*
X745337Y1166885D01*
X746885Y1165337D01*
X748906Y1164500D01*
X751094D01*
X753115Y1165337D01*
X754663Y1166885D01*
X755500Y1168906D01*
Y1171094D01*
X754663Y1173115D01*
X753115Y1174663D01*
X751094Y1175500D01*
D02*
G37*
G36*
X364674Y1127000D02*
X364500D01*
Y1111500D01*
X380000D01*
Y1111674D01*
X379347Y1114959D01*
X378065Y1118053D01*
X376205Y1120837D01*
X373837Y1123205D01*
X371053Y1125065D01*
X367959Y1126347D01*
X364674Y1127000D01*
D02*
G37*
G36*
X361500D02*
X361326D01*
X358041Y1126347D01*
X354948Y1125065D01*
X352163Y1123205D01*
X349795Y1120837D01*
X347935Y1118053D01*
X346653Y1114959D01*
X346000Y1111674D01*
Y1111500D01*
X361500D01*
Y1127000D01*
D02*
G37*
G36*
X817198Y1123000D02*
X812003D01*
X806873Y1122187D01*
X801933Y1120582D01*
X797305Y1118224D01*
X793102Y1115171D01*
X789429Y1111498D01*
X786376Y1107296D01*
X784140Y1102906D01*
X783376Y1102793D01*
X782763Y1102913D01*
X781964Y1104840D01*
X780268Y1107379D01*
X778109Y1109538D01*
X775570Y1111234D01*
X772749Y1112403D01*
X769755Y1112998D01*
X766702D01*
X763707Y1112403D01*
X760886Y1111234D01*
X758347Y1109538D01*
X756189Y1107379D01*
X754492Y1104840D01*
X753324Y1102020D01*
X752728Y1099025D01*
Y1095972D01*
X753324Y1092977D01*
X754492Y1090156D01*
X756189Y1087618D01*
X758347Y1085459D01*
X760886Y1083762D01*
X763707Y1082594D01*
X766702Y1081998D01*
X769755D01*
X772749Y1082594D01*
X775570Y1083762D01*
X778109Y1085459D01*
X780268Y1087618D01*
X780385Y1087793D01*
X781377Y1087492D01*
X781610Y1087341D01*
X782413Y1082272D01*
X784018Y1077332D01*
X786376Y1072704D01*
X789429Y1068502D01*
X793102Y1064829D01*
X797305Y1061776D01*
X801933Y1059418D01*
X806873Y1057813D01*
X812003Y1057000D01*
X817198D01*
X822328Y1057813D01*
X827268Y1059418D01*
X831896Y1061776D01*
X836098Y1064829D01*
X839771Y1068502D01*
X842824Y1072704D01*
X845183Y1077332D01*
X846788Y1082272D01*
X847600Y1087403D01*
Y1092597D01*
X846788Y1097728D01*
X845183Y1102668D01*
X842824Y1107296D01*
X839771Y1111498D01*
X836098Y1115171D01*
X831896Y1118224D01*
X827268Y1120582D01*
X822328Y1122187D01*
X817198Y1123000D01*
D02*
G37*
G36*
X380000Y1108500D02*
X364500D01*
Y1093000D01*
X364674D01*
X367959Y1093653D01*
X371053Y1094935D01*
X373837Y1096795D01*
X376205Y1099163D01*
X378065Y1101947D01*
X379347Y1105041D01*
X380000Y1108326D01*
Y1108500D01*
D02*
G37*
G36*
X361500D02*
X346000D01*
Y1108326D01*
X346653Y1105041D01*
X347935Y1101947D01*
X349795Y1099163D01*
X352163Y1096795D01*
X354948Y1094935D01*
X358041Y1093653D01*
X361326Y1093000D01*
X361500D01*
Y1108500D01*
D02*
G37*
G36*
X292204Y1138000D02*
X287796D01*
X283443Y1137310D01*
X279252Y1135949D01*
X275325Y1133948D01*
X271759Y1131357D01*
X268643Y1128241D01*
X266052Y1124675D01*
X264051Y1120748D01*
X262689Y1116557D01*
X262000Y1112204D01*
Y1107796D01*
X262689Y1103443D01*
X264051Y1099252D01*
X266052Y1095325D01*
X268643Y1091759D01*
X271759Y1088643D01*
X275325Y1086052D01*
X279252Y1084051D01*
X283443Y1082690D01*
X287796Y1082000D01*
X292204D01*
X296557Y1082690D01*
X300748Y1084051D01*
X304675Y1086052D01*
X308241Y1088643D01*
X311357Y1091759D01*
X313948Y1095325D01*
X315949Y1099252D01*
X317311Y1103443D01*
X318000Y1107796D01*
Y1112204D01*
X317311Y1116557D01*
X315949Y1120748D01*
X313948Y1124675D01*
X311357Y1128241D01*
X308241Y1131357D01*
X304675Y1133948D01*
X300748Y1135949D01*
X296557Y1137310D01*
X292204Y1138000D01*
D02*
G37*
G36*
X591081Y1083902D02*
X591002D01*
Y1073402D01*
X601502D01*
Y1073481D01*
X600684Y1076534D01*
X599104Y1079270D01*
X596870Y1081504D01*
X594133Y1083084D01*
X591081Y1083902D01*
D02*
G37*
G36*
X588002D02*
X587922D01*
X584870Y1083084D01*
X582133Y1081504D01*
X579899Y1079270D01*
X578319Y1076534D01*
X577502Y1073481D01*
Y1073402D01*
X588002D01*
Y1083902D01*
D02*
G37*
G36*
X364674Y1085000D02*
X364500D01*
Y1069500D01*
X380000D01*
Y1069674D01*
X379347Y1072959D01*
X378065Y1076052D01*
X376205Y1078837D01*
X373837Y1081205D01*
X371053Y1083065D01*
X367959Y1084347D01*
X364674Y1085000D01*
D02*
G37*
G36*
X361500D02*
X361326D01*
X358041Y1084347D01*
X354948Y1083065D01*
X352163Y1081205D01*
X349795Y1078837D01*
X347935Y1076052D01*
X346653Y1072959D01*
X346000Y1069674D01*
Y1069500D01*
X361500D01*
Y1085000D01*
D02*
G37*
G36*
X642505Y1125302D02*
X638098D01*
X633745Y1124612D01*
X629553Y1123250D01*
X625626Y1121249D01*
X622061Y1118659D01*
X618944Y1115542D01*
X616354Y1111977D01*
X615500Y1110302D01*
X613190D01*
X609884Y1109416D01*
X606919Y1107704D01*
X604499Y1105284D01*
X602788Y1102319D01*
X601902Y1099013D01*
Y1095590D01*
X602788Y1092284D01*
X604499Y1089319D01*
X606919Y1086899D01*
X609884Y1085188D01*
X613190Y1084302D01*
X613979D01*
X614643Y1083219D01*
X614353Y1082650D01*
X612991Y1078458D01*
X612302Y1074105D01*
Y1069698D01*
X612991Y1065345D01*
X614353Y1061153D01*
X614643Y1060584D01*
X613979Y1059502D01*
X613190D01*
X609884Y1058616D01*
X606919Y1056904D01*
X604499Y1054484D01*
X602885Y1051689D01*
X602202Y1051598D01*
X601518Y1051689D01*
X599904Y1054484D01*
X597484Y1056904D01*
X594519Y1058616D01*
X592854Y1059062D01*
Y1060377D01*
X594133Y1060719D01*
X596870Y1062299D01*
X599104Y1064533D01*
X600684Y1067270D01*
X601502Y1070322D01*
Y1070402D01*
X589502D01*
X577502D01*
Y1070322D01*
X578319Y1067270D01*
X579899Y1064533D01*
X582133Y1062299D01*
X584870Y1060719D01*
X586149Y1060377D01*
Y1059062D01*
X584484Y1058616D01*
X581519Y1056904D01*
X579099Y1054484D01*
X577388Y1051519D01*
X576502Y1048213D01*
Y1044790D01*
X577388Y1041484D01*
X579099Y1038519D01*
X581519Y1036099D01*
X584484Y1034388D01*
X587790Y1033502D01*
X591213D01*
X594519Y1034388D01*
X597484Y1036099D01*
X599904Y1038519D01*
X601518Y1041315D01*
X602202Y1041406D01*
X602885Y1041315D01*
X604499Y1038519D01*
X606919Y1036099D01*
X609884Y1034388D01*
X613190Y1033502D01*
X616613D01*
X619919Y1034388D01*
X622884Y1036099D01*
X625304Y1038519D01*
X627016Y1041484D01*
X627902Y1044790D01*
Y1045579D01*
X628984Y1046243D01*
X629553Y1045953D01*
X633745Y1044591D01*
X638098Y1043902D01*
X642505D01*
X646858Y1044591D01*
X651050Y1045953D01*
X654977Y1047954D01*
X658542Y1050544D01*
X661659Y1053661D01*
X664249Y1057226D01*
X666250Y1061153D01*
X667612Y1065345D01*
X668302Y1069698D01*
Y1074105D01*
X667612Y1078458D01*
X666250Y1082650D01*
X665256Y1084602D01*
X666250Y1086553D01*
X667612Y1090745D01*
X668302Y1095098D01*
Y1099505D01*
X667612Y1103858D01*
X666250Y1108050D01*
X664249Y1111977D01*
X661659Y1115542D01*
X658542Y1118659D01*
X654977Y1121249D01*
X651050Y1123250D01*
X646858Y1124612D01*
X642505Y1125302D01*
D02*
G37*
G36*
X380000Y1066500D02*
X364500D01*
Y1051000D01*
X364674D01*
X367959Y1051653D01*
X371053Y1052935D01*
X373837Y1054795D01*
X376205Y1057163D01*
X378065Y1059948D01*
X379347Y1063041D01*
X380000Y1066326D01*
Y1066500D01*
D02*
G37*
G36*
X361500D02*
X346000D01*
Y1066326D01*
X346653Y1063041D01*
X347935Y1059948D01*
X349795Y1057163D01*
X352163Y1054795D01*
X354948Y1052935D01*
X358041Y1051653D01*
X361326Y1051000D01*
X361500D01*
Y1066500D01*
D02*
G37*
G36*
X364674Y1043000D02*
X364500D01*
Y1027500D01*
X380000D01*
Y1027674D01*
X379347Y1030959D01*
X378065Y1034053D01*
X376205Y1036837D01*
X373837Y1039205D01*
X371053Y1041065D01*
X367959Y1042347D01*
X364674Y1043000D01*
D02*
G37*
G36*
X361500D02*
X361326D01*
X358041Y1042347D01*
X354948Y1041065D01*
X352163Y1039205D01*
X349795Y1036837D01*
X347935Y1034053D01*
X346653Y1030959D01*
X346000Y1027674D01*
Y1027500D01*
X361500D01*
Y1043000D01*
D02*
G37*
G36*
X380000Y1024500D02*
X364500D01*
Y1009000D01*
X364674D01*
X367959Y1009653D01*
X371053Y1010935D01*
X373837Y1012795D01*
X376205Y1015163D01*
X378065Y1017947D01*
X379347Y1021041D01*
X380000Y1024326D01*
Y1024500D01*
D02*
G37*
G36*
X361500D02*
X346000D01*
Y1024326D01*
X346653Y1021041D01*
X347935Y1017947D01*
X349795Y1015163D01*
X352163Y1012795D01*
X354948Y1010935D01*
X358041Y1009653D01*
X361326Y1009000D01*
X361500D01*
Y1024500D01*
D02*
G37*
G36*
X292204Y1054000D02*
X287796D01*
X283443Y1053310D01*
X279252Y1051949D01*
X275325Y1049948D01*
X271759Y1047357D01*
X268643Y1044241D01*
X266052Y1040675D01*
X264051Y1036748D01*
X262689Y1032557D01*
X262000Y1028204D01*
Y1023796D01*
X262689Y1019443D01*
X264051Y1015252D01*
X266052Y1011325D01*
X268643Y1007759D01*
X271759Y1004643D01*
X275325Y1002052D01*
X279252Y1000051D01*
X283443Y998689D01*
X287796Y998000D01*
X292204D01*
X296557Y998689D01*
X300748Y1000051D01*
X304675Y1002052D01*
X308241Y1004643D01*
X311357Y1007759D01*
X313948Y1011325D01*
X315949Y1015252D01*
X317311Y1019443D01*
X318000Y1023796D01*
Y1028204D01*
X317311Y1032557D01*
X315949Y1036748D01*
X313948Y1040675D01*
X311357Y1044241D01*
X308241Y1047357D01*
X304675Y1049948D01*
X300748Y1051949D01*
X296557Y1053310D01*
X292204Y1054000D01*
D02*
G37*
G36*
X817198Y1013000D02*
X812003D01*
X806873Y1012187D01*
X801933Y1010582D01*
X797305Y1008224D01*
X793102Y1005171D01*
X789429Y1001498D01*
X786376Y997296D01*
X784562Y993735D01*
X783327Y993438D01*
X782075Y994348D01*
X778148Y996349D01*
X773957Y997710D01*
X769604Y998400D01*
X765196D01*
X760843Y997710D01*
X756652Y996349D01*
X754554Y995280D01*
X752650Y996250D01*
X748458Y997612D01*
X744105Y998302D01*
X739698D01*
X735345Y997612D01*
X731153Y996250D01*
X727226Y994249D01*
X723661Y991659D01*
X720544Y988542D01*
X717954Y984977D01*
X715953Y981050D01*
X714591Y976858D01*
X713902Y972505D01*
Y968098D01*
X714591Y963745D01*
X715953Y959553D01*
X716243Y958985D01*
X715579Y957902D01*
X714790D01*
X711484Y957016D01*
X708519Y955304D01*
X706099Y952884D01*
X704388Y949919D01*
X703502Y946613D01*
Y943190D01*
X704388Y939884D01*
X706099Y936919D01*
X708519Y934499D01*
X711315Y932885D01*
X711406Y932202D01*
X711315Y931518D01*
X708519Y929904D01*
X706099Y927484D01*
X704388Y924519D01*
X703502Y921213D01*
Y917790D01*
X704388Y914484D01*
X706099Y911519D01*
X708519Y909099D01*
X711484Y907387D01*
X714790Y906502D01*
X718213D01*
X721519Y907387D01*
X724484Y909099D01*
X726904Y911519D01*
X728518Y914315D01*
X729202Y914406D01*
X729885Y914315D01*
X731499Y911519D01*
X733919Y909099D01*
X736884Y907387D01*
X740190Y906502D01*
X743613D01*
X746919Y907387D01*
X749884Y909099D01*
X752304Y911519D01*
X754016Y914484D01*
X754902Y917790D01*
Y918579D01*
X755984Y919243D01*
X756553Y918953D01*
X760745Y917591D01*
X765098Y916902D01*
X769505D01*
X773858Y917591D01*
X778050Y918953D01*
X781977Y920954D01*
X785542Y923544D01*
X788659Y926661D01*
X791249Y930226D01*
X793250Y934153D01*
X794612Y938345D01*
X795302Y942698D01*
Y947105D01*
X794612Y951458D01*
X794280Y952480D01*
X795307Y953227D01*
X797305Y951776D01*
X801933Y949418D01*
X806873Y947813D01*
X812003Y947000D01*
X817198D01*
X822328Y947813D01*
X827268Y949418D01*
X831896Y951776D01*
X836098Y954829D01*
X839771Y958502D01*
X842824Y962704D01*
X845183Y967332D01*
X846788Y972272D01*
X847600Y977403D01*
Y982597D01*
X846788Y987728D01*
X845183Y992668D01*
X842824Y997296D01*
X839771Y1001498D01*
X836098Y1005171D01*
X831896Y1008224D01*
X827268Y1010582D01*
X822328Y1012187D01*
X817198Y1013000D01*
D02*
G37*
G36*
X794094Y910500D02*
X791906D01*
X789884Y909663D01*
X788337Y908115D01*
X787500Y906094D01*
Y903906D01*
X788337Y901885D01*
X789884Y900337D01*
X791906Y899500D01*
X794094D01*
X796115Y900337D01*
X797663Y901885D01*
X798500Y903906D01*
Y906094D01*
X797663Y908115D01*
X796115Y909663D01*
X794094Y910500D01*
D02*
G37*
G36*
X657455Y878057D02*
X649620D01*
Y874200D01*
X660335D01*
Y875176D01*
X660116Y876279D01*
X659492Y877214D01*
X658557Y877838D01*
X657455Y878057D01*
D02*
G37*
G36*
X646620D02*
X638786D01*
X637683Y877838D01*
X636749Y877214D01*
X636124Y876279D01*
X635905Y875176D01*
Y874200D01*
X646620D01*
Y878057D01*
D02*
G37*
G36*
X606000Y883098D02*
X594000D01*
X592049Y882710D01*
X590395Y881605D01*
X589290Y879951D01*
X588902Y878000D01*
Y862000D01*
X589290Y860049D01*
X590395Y858395D01*
X592049Y857290D01*
X594000Y856902D01*
X606000D01*
X607951Y857290D01*
X609605Y858395D01*
X610710Y860049D01*
X611098Y862000D01*
Y870392D01*
X614000D01*
X614542Y870500D01*
X615094D01*
X615604Y870711D01*
X616146Y870819D01*
X616605Y871126D01*
X617116Y871337D01*
X617506Y871728D01*
X617965Y872035D01*
X618272Y872494D01*
X618663Y872885D01*
X618874Y873395D01*
X619181Y873854D01*
X619289Y874396D01*
X619500Y874906D01*
Y875458D01*
X619608Y876000D01*
X619500Y876542D01*
Y877094D01*
X619289Y877604D01*
X619181Y878146D01*
X618874Y878605D01*
X618663Y879116D01*
X618272Y879506D01*
X617965Y879965D01*
X617506Y880272D01*
X617116Y880663D01*
X616605Y880874D01*
X616146Y881181D01*
X615604Y881289D01*
X615094Y881500D01*
X614542D01*
X614000Y881608D01*
X609600D01*
X607951Y882710D01*
X606000Y883098D01*
D02*
G37*
G36*
X660335Y871200D02*
X648120D01*
X635905D01*
Y870223D01*
X636124Y869121D01*
X636749Y868186D01*
X637683Y867562D01*
X637958Y867507D01*
Y866212D01*
X637293Y866080D01*
X636586Y865608D01*
X631000D01*
X628854Y865181D01*
X627035Y863965D01*
X624035Y860965D01*
X623728Y860506D01*
X623337Y860116D01*
X623126Y859605D01*
X622819Y859146D01*
X622711Y858604D01*
X622500Y858094D01*
Y857542D01*
X622392Y857000D01*
X622500Y856458D01*
Y855906D01*
X622711Y855396D01*
X622819Y854854D01*
X623126Y854395D01*
X623337Y853885D01*
X623728Y853494D01*
X624035Y853035D01*
X624494Y852728D01*
X624884Y852337D01*
X625395Y852126D01*
X625854Y851819D01*
X626396Y851711D01*
X626906Y851500D01*
X627458D01*
X628000Y851392D01*
X628542Y851500D01*
X629094D01*
X629604Y851711D01*
X630146Y851819D01*
X630605Y852126D01*
X631115Y852337D01*
X631506Y852728D01*
X631965Y853035D01*
X633323Y854392D01*
X636586D01*
X637293Y853920D01*
X638786Y853623D01*
X657455D01*
X658947Y853920D01*
X660212Y854765D01*
X661058Y856031D01*
X661355Y857523D01*
Y862477D01*
X661058Y863969D01*
X660212Y865235D01*
X658947Y866080D01*
X658282Y866212D01*
Y867507D01*
X658557Y867562D01*
X659492Y868186D01*
X660116Y869121D01*
X660335Y870223D01*
Y871200D01*
D02*
G37*
G36*
X817198Y903000D02*
X812003D01*
X806873Y902187D01*
X801933Y900582D01*
X797305Y898224D01*
X793102Y895171D01*
X789429Y891498D01*
X786376Y887296D01*
X784018Y882668D01*
X782413Y877728D01*
X781600Y872597D01*
Y867403D01*
X782413Y862272D01*
X784018Y857332D01*
X786376Y852704D01*
X789429Y848502D01*
X793102Y844829D01*
X797305Y841776D01*
X801933Y839418D01*
X806873Y837813D01*
X812003Y837000D01*
X817198D01*
X822328Y837813D01*
X827268Y839418D01*
X831896Y841776D01*
X836098Y844829D01*
X839771Y848502D01*
X842824Y852704D01*
X845183Y857332D01*
X846788Y862272D01*
X847600Y867403D01*
Y872597D01*
X846788Y877728D01*
X845183Y882668D01*
X842824Y887296D01*
X839771Y891498D01*
X836098Y895171D01*
X831896Y898224D01*
X827268Y900582D01*
X822328Y902187D01*
X817198Y903000D01*
D02*
G37*
G36*
X654500Y838069D02*
X651500D01*
Y830500D01*
X658069D01*
Y834500D01*
X657797Y835866D01*
X657023Y837023D01*
X655866Y837797D01*
X654500Y838069D01*
D02*
G37*
G36*
X658069Y827500D02*
X651500D01*
Y819931D01*
X654500D01*
X655866Y820203D01*
X657023Y820977D01*
X657797Y822134D01*
X658069Y823500D01*
Y827500D01*
D02*
G37*
G36*
X756650Y828583D02*
X749150D01*
X747492Y828253D01*
X746086Y827314D01*
X745147Y825908D01*
X744817Y824250D01*
Y816750D01*
X745147Y815092D01*
X746086Y813686D01*
X747392Y812813D01*
Y812000D01*
X747500Y811458D01*
Y810906D01*
X747711Y810396D01*
X747819Y809854D01*
X748126Y809395D01*
X748337Y808885D01*
X748728Y808494D01*
X749035Y808035D01*
X749494Y807728D01*
X749884Y807337D01*
X750395Y807126D01*
X750854Y806819D01*
X751396Y806711D01*
X751906Y806500D01*
X752458D01*
X753000Y806392D01*
X753542Y806500D01*
X754094D01*
X754604Y806711D01*
X755146Y806819D01*
X755605Y807126D01*
X756115Y807337D01*
X756506Y807728D01*
X756965Y808035D01*
X757272Y808494D01*
X757663Y808885D01*
X757874Y809395D01*
X758181Y809854D01*
X758289Y810396D01*
X758500Y810906D01*
Y811458D01*
X758608Y812000D01*
Y812947D01*
X759714Y813686D01*
X760653Y815092D01*
X760983Y816750D01*
Y824250D01*
X760653Y825908D01*
X759714Y827314D01*
X758308Y828253D01*
X756650Y828583D01*
D02*
G37*
G36*
X577076Y813235D02*
X572123D01*
X570631Y812938D01*
X569366Y812093D01*
X568520Y810827D01*
X568223Y809334D01*
Y806608D01*
X564000D01*
X563458Y806500D01*
X562906D01*
X562396Y806289D01*
X561854Y806181D01*
X561395Y805874D01*
X560885Y805663D01*
X560494Y805272D01*
X560035Y804965D01*
X559728Y804506D01*
X559337Y804116D01*
X559126Y803605D01*
X558819Y803146D01*
X558711Y802604D01*
X558500Y802094D01*
Y801542D01*
X558392Y801000D01*
X558500Y800458D01*
Y799906D01*
X558711Y799396D01*
X558819Y798854D01*
X559126Y798395D01*
X559337Y797885D01*
X559728Y797494D01*
X560035Y797035D01*
X560494Y796728D01*
X560885Y796337D01*
X561395Y796126D01*
X561854Y795819D01*
X562396Y795711D01*
X562906Y795500D01*
X563458D01*
X564000Y795392D01*
X568223D01*
Y790666D01*
X568520Y789173D01*
X569366Y787907D01*
X570631Y787062D01*
X572123Y786765D01*
X577076D01*
X578569Y787062D01*
X579835Y787907D01*
X580680Y789173D01*
X580977Y790666D01*
Y809334D01*
X580680Y810827D01*
X579835Y812093D01*
X578569Y812938D01*
X577076Y813235D01*
D02*
G37*
G36*
X482400Y827960D02*
X466800D01*
X464615Y827525D01*
X462763Y826287D01*
X461525Y824435D01*
X461090Y822250D01*
Y789350D01*
X461525Y787165D01*
X462763Y785313D01*
X464615Y784075D01*
X466800Y783640D01*
X468992D01*
Y773400D01*
X469419Y771254D01*
X470635Y769435D01*
X471035Y769035D01*
X471494Y768728D01*
X471884Y768337D01*
X472395Y768126D01*
X472854Y767819D01*
X473396Y767711D01*
X473906Y767500D01*
X474458D01*
X475000Y767392D01*
X475542Y767500D01*
X476094D01*
X476604Y767711D01*
X477146Y767819D01*
X477605Y768126D01*
X478116Y768337D01*
X478506Y768728D01*
X478965Y769035D01*
X479272Y769494D01*
X479663Y769884D01*
X479874Y770395D01*
X480181Y770854D01*
X480289Y771396D01*
X480500Y771906D01*
Y772458D01*
X480608Y773000D01*
X480500Y773542D01*
Y774094D01*
X480289Y774604D01*
X480208Y775011D01*
Y783640D01*
X482400D01*
X484585Y784075D01*
X486437Y785313D01*
X487675Y787165D01*
X488110Y789350D01*
Y822250D01*
X487675Y824435D01*
X486437Y826287D01*
X484585Y827525D01*
X482400Y827960D01*
D02*
G37*
G36*
X358500Y759073D02*
X354750D01*
X353287Y758782D01*
X352046Y757954D01*
X351218Y756713D01*
X351076Y756000D01*
X358500D01*
Y759073D01*
D02*
G37*
G36*
X647000Y808608D02*
X646458Y808500D01*
X645906D01*
X645396Y808289D01*
X644854Y808181D01*
X644395Y807874D01*
X643885Y807663D01*
X643494Y807272D01*
X643035Y806965D01*
X639148Y803078D01*
X635000D01*
X633439Y802768D01*
X632116Y801884D01*
X631232Y800561D01*
X630922Y799000D01*
Y793000D01*
X631232Y791439D01*
X632116Y790116D01*
X633439Y789232D01*
X634000Y789120D01*
Y786879D01*
X633439Y786768D01*
X632116Y785884D01*
X631232Y784561D01*
X630922Y783000D01*
Y777000D01*
X631232Y775439D01*
X632116Y774116D01*
X632644Y773764D01*
Y772236D01*
X632116Y771884D01*
X631232Y770561D01*
X630922Y769000D01*
Y763000D01*
X631232Y761439D01*
X632116Y760116D01*
X633439Y759232D01*
X634000Y759121D01*
Y755860D01*
X633829Y755826D01*
X632837Y755163D01*
X632174Y754171D01*
X631941Y753000D01*
Y751500D01*
X639000D01*
X646059D01*
Y753000D01*
X645826Y754171D01*
X645163Y755163D01*
X644171Y755826D01*
X644000Y755860D01*
Y759121D01*
X644561Y759232D01*
X645884Y760116D01*
X646768Y761439D01*
X647078Y763000D01*
Y769000D01*
X646768Y770561D01*
X645884Y771884D01*
X645356Y772236D01*
Y773764D01*
X645884Y774116D01*
X646768Y775439D01*
X647078Y777000D01*
Y783000D01*
X646768Y784561D01*
X645884Y785884D01*
X644561Y786768D01*
X644000Y786879D01*
Y789120D01*
X644561Y789232D01*
X645884Y790116D01*
X646768Y791439D01*
X647078Y793000D01*
Y795148D01*
X650965Y799035D01*
X651272Y799494D01*
X651663Y799884D01*
X651874Y800395D01*
X652181Y800854D01*
X652289Y801396D01*
X652500Y801906D01*
Y802458D01*
X652608Y803000D01*
X652500Y803542D01*
Y804094D01*
X652289Y804604D01*
X652181Y805146D01*
X651874Y805605D01*
X651663Y806115D01*
X651272Y806506D01*
X650965Y806965D01*
X650506Y807272D01*
X650116Y807663D01*
X649605Y807874D01*
X649146Y808181D01*
X648604Y808289D01*
X648094Y808500D01*
X647542D01*
X647000Y808608D01*
D02*
G37*
G36*
X615177Y756335D02*
X614200D01*
Y745620D01*
X618057D01*
Y753455D01*
X617838Y754557D01*
X617214Y755492D01*
X616279Y756116D01*
X615177Y756335D01*
D02*
G37*
G36*
X646059Y748500D02*
X640500D01*
Y743941D01*
X643000D01*
X644171Y744174D01*
X645163Y744837D01*
X645826Y745829D01*
X646059Y747000D01*
Y748500D01*
D02*
G37*
G36*
X637500D02*
X631941D01*
Y747000D01*
X632174Y745829D01*
X632837Y744837D01*
X633829Y744174D01*
X635000Y743941D01*
X637500D01*
Y748500D01*
D02*
G37*
G36*
X618057Y742620D02*
X614200D01*
Y731905D01*
X615177D01*
X616279Y732124D01*
X617214Y732748D01*
X617838Y733683D01*
X618057Y734786D01*
Y742620D01*
D02*
G37*
G36*
X817198Y793000D02*
X812003D01*
X806873Y792187D01*
X801933Y790582D01*
X797305Y788224D01*
X793102Y785171D01*
X789429Y781498D01*
X786376Y777296D01*
X784018Y772668D01*
X782413Y767728D01*
X781600Y762597D01*
Y757403D01*
X782413Y752272D01*
X784018Y747332D01*
X786376Y742704D01*
X789429Y738502D01*
X793102Y734829D01*
X797305Y731776D01*
X801933Y729418D01*
X806873Y727813D01*
X812003Y727000D01*
X817198D01*
X822328Y727813D01*
X827268Y729418D01*
X831896Y731776D01*
X836098Y734829D01*
X839771Y738502D01*
X842824Y742704D01*
X845183Y747332D01*
X846788Y752272D01*
X847600Y757403D01*
Y762597D01*
X846788Y767728D01*
X845183Y772668D01*
X842824Y777296D01*
X839771Y781498D01*
X836098Y785171D01*
X831896Y788224D01*
X827268Y790582D01*
X822328Y792187D01*
X817198Y793000D01*
D02*
G37*
G36*
X358500Y724000D02*
X351076D01*
X351218Y723287D01*
X352046Y722046D01*
X353287Y721218D01*
X354750Y720927D01*
X358500D01*
Y724000D01*
D02*
G37*
%LPD*%
G36*
X699000Y1193000D02*
Y1162000D01*
X692000Y1155000D01*
X577000D01*
X551000Y1129000D01*
Y1102000D01*
X541000Y1092000D01*
X485000Y1092000D01*
X466000Y1073000D01*
Y1032000D01*
X423000Y989000D01*
X410000D01*
X403000Y996000D01*
X403000Y1189000D01*
X411473Y1197473D01*
X694527D01*
X699000Y1193000D01*
D02*
G37*
G36*
X541000Y1064000D02*
X551000Y1054000D01*
X551000Y1005000D01*
X557000Y999000D01*
Y944000D01*
X443000D01*
Y967000D01*
X495000Y1019000D01*
Y1054000D01*
X505000Y1064000D01*
X521000D01*
X541000Y1064000D01*
D02*
G37*
G36*
X731153Y944353D02*
X735345Y942991D01*
X739356Y942356D01*
X739991Y938345D01*
X741353Y934153D01*
X741643Y933585D01*
X740979Y932502D01*
X740190D01*
X736884Y931616D01*
X733919Y929904D01*
X731499Y927484D01*
X729885Y924688D01*
X729202Y924597D01*
X728518Y924688D01*
X726904Y927484D01*
X724484Y929904D01*
X721689Y931518D01*
X721598Y932202D01*
X721689Y932885D01*
X724484Y934499D01*
X726904Y936919D01*
X728616Y939884D01*
X729502Y943190D01*
Y943979D01*
X730584Y944643D01*
X731153Y944353D01*
D02*
G37*
%LPC*%
G36*
X1346750Y1246123D02*
X1325250D01*
X1324930Y1246059D01*
X1307000D01*
X1307000Y1246059D01*
X1305829Y1245826D01*
X1304837Y1245163D01*
X1304837Y1245163D01*
X1282837Y1223163D01*
X1282174Y1222170D01*
X1281941Y1221000D01*
X1281941Y1221000D01*
Y1183000D01*
X1281941Y1183000D01*
X1282174Y1181830D01*
X1282837Y1180837D01*
X1298837Y1164837D01*
X1299830Y1164174D01*
X1301000Y1163941D01*
X1301000Y1163941D01*
X1324930D01*
X1325250Y1163878D01*
X1346750D01*
X1347070Y1163941D01*
X1350000D01*
X1351171Y1164174D01*
X1352163Y1164837D01*
X1352826Y1165829D01*
X1353059Y1167000D01*
Y1169930D01*
X1353123Y1170250D01*
Y1189750D01*
X1353059Y1190070D01*
Y1219930D01*
X1353123Y1220250D01*
Y1239750D01*
X1353059Y1240070D01*
Y1243000D01*
X1352826Y1244171D01*
X1352163Y1245163D01*
X1351171Y1245826D01*
X1350000Y1246059D01*
X1347070D01*
X1346750Y1246123D01*
D02*
G37*
G36*
X1419750Y1245103D02*
X1410500D01*
Y1230000D01*
X1407500D01*
Y1245103D01*
X1398250D01*
X1396202Y1244695D01*
X1394465Y1243535D01*
X1393305Y1241798D01*
X1392897Y1239750D01*
Y1232203D01*
X1392837Y1232163D01*
X1392174Y1231171D01*
X1391941Y1230000D01*
Y1180000D01*
X1392174Y1178829D01*
X1392837Y1177837D01*
X1392897Y1177797D01*
Y1170250D01*
X1393305Y1168202D01*
X1394465Y1166465D01*
X1396202Y1165305D01*
X1398250Y1164897D01*
X1407500D01*
Y1180000D01*
X1410500D01*
Y1164897D01*
X1419750D01*
X1421799Y1165305D01*
X1423535Y1166465D01*
X1424695Y1168202D01*
X1425103Y1170250D01*
Y1177797D01*
X1425163Y1177837D01*
X1425826Y1178829D01*
X1426059Y1180000D01*
Y1230000D01*
X1425826Y1231171D01*
X1425163Y1232163D01*
X1425103Y1232203D01*
Y1239750D01*
X1424695Y1241798D01*
X1423535Y1243535D01*
X1421799Y1244695D01*
X1419750Y1245103D01*
D02*
G37*
G36*
X1147582Y1236996D02*
X1147502D01*
Y1226496D01*
X1158002D01*
Y1226576D01*
X1157185Y1229628D01*
X1155605Y1232364D01*
X1153371Y1234598D01*
X1150634Y1236178D01*
X1147582Y1236996D01*
D02*
G37*
G36*
X1144502D02*
X1144423D01*
X1141371Y1236178D01*
X1138634Y1234598D01*
X1136400Y1232364D01*
X1134820Y1229628D01*
X1134002Y1226576D01*
Y1226496D01*
X1144502D01*
Y1236996D01*
D02*
G37*
G36*
X1037582D02*
X1037502D01*
Y1226496D01*
X1048002D01*
Y1226576D01*
X1047185Y1229628D01*
X1045605Y1232364D01*
X1043371Y1234598D01*
X1040634Y1236178D01*
X1037582Y1236996D01*
D02*
G37*
G36*
X1034502D02*
X1034423D01*
X1031371Y1236178D01*
X1028634Y1234598D01*
X1026400Y1232364D01*
X1024820Y1229628D01*
X1024002Y1226576D01*
Y1226496D01*
X1034502D01*
Y1236996D01*
D02*
G37*
G36*
X1226125Y1221125D02*
X1205875D01*
X1203388Y1220630D01*
X1202533Y1220059D01*
X1193000D01*
X1193000Y1220059D01*
X1191830Y1219826D01*
X1190837Y1219163D01*
X1162733Y1191059D01*
X1014267D01*
X988163Y1217163D01*
X987170Y1217826D01*
X986000Y1218059D01*
X986000Y1218059D01*
X956000Y1218059D01*
X955704Y1218000D01*
X954227D01*
X950750Y1217308D01*
X947474Y1215951D01*
X944526Y1213981D01*
X942019Y1211474D01*
X940049Y1208526D01*
X938692Y1205250D01*
X938000Y1201773D01*
Y1198227D01*
X938692Y1194750D01*
X940049Y1191474D01*
X942019Y1188526D01*
X944526Y1186019D01*
X947474Y1184049D01*
X950750Y1182692D01*
X954227Y1182000D01*
X955704D01*
X956000Y1181941D01*
X968733D01*
X992837Y1157837D01*
X993829Y1157174D01*
X995000Y1156941D01*
X995000Y1156941D01*
X1177000D01*
X1178170Y1157174D01*
X1179163Y1157837D01*
X1179163Y1157837D01*
X1201267Y1179941D01*
X1202533D01*
X1203388Y1179370D01*
X1205875Y1178875D01*
X1226125D01*
X1228612Y1179370D01*
X1230721Y1180779D01*
X1232130Y1182888D01*
X1232625Y1185375D01*
Y1214625D01*
X1232130Y1217112D01*
X1230721Y1219221D01*
X1228612Y1220630D01*
X1226125Y1221125D01*
D02*
G37*
G36*
X1158002Y1223496D02*
X1147502D01*
Y1212996D01*
X1147582D01*
X1150634Y1213814D01*
X1153371Y1215394D01*
X1155605Y1217628D01*
X1157185Y1220364D01*
X1158002Y1223416D01*
Y1223496D01*
D02*
G37*
G36*
X1144502D02*
X1134002D01*
Y1223416D01*
X1134820Y1220364D01*
X1136400Y1217628D01*
X1138634Y1215394D01*
X1141371Y1213814D01*
X1144423Y1212996D01*
X1144502D01*
Y1223496D01*
D02*
G37*
G36*
X1048002Y1223496D02*
X1037502D01*
Y1212996D01*
X1037582D01*
X1040634Y1213814D01*
X1043371Y1215394D01*
X1045605Y1217628D01*
X1047185Y1220364D01*
X1048002Y1223416D01*
Y1223496D01*
D02*
G37*
G36*
X1034502D02*
X1024002D01*
Y1223416D01*
X1024820Y1220364D01*
X1026400Y1217628D01*
X1028634Y1215394D01*
X1031371Y1213814D01*
X1034423Y1212996D01*
X1034502D01*
Y1223496D01*
D02*
G37*
G36*
X1712794Y1245500D02*
X1707206D01*
X1701687Y1244626D01*
X1696373Y1242899D01*
X1691394Y1240362D01*
X1686873Y1237078D01*
X1682922Y1233127D01*
X1679638Y1228606D01*
X1677101Y1223627D01*
X1675374Y1218313D01*
X1674500Y1212794D01*
Y1207206D01*
X1675374Y1201687D01*
X1677101Y1196373D01*
X1679638Y1191394D01*
X1682922Y1186873D01*
X1686873Y1182922D01*
X1691394Y1179638D01*
X1696373Y1177101D01*
X1701687Y1175374D01*
X1707206Y1174500D01*
X1712794D01*
X1718313Y1175374D01*
X1723627Y1177101D01*
X1728606Y1179638D01*
X1733127Y1182922D01*
X1737078Y1186873D01*
X1740362Y1191394D01*
X1742899Y1196373D01*
X1744626Y1201687D01*
X1745500Y1207206D01*
Y1212794D01*
X1744626Y1218313D01*
X1742899Y1223627D01*
X1740362Y1228606D01*
X1737078Y1233127D01*
X1733127Y1237078D01*
X1728606Y1240362D01*
X1723627Y1242899D01*
X1718313Y1244626D01*
X1712794Y1245500D01*
D02*
G37*
G36*
X1696500Y1130986D02*
Y1121500D01*
X1705986D01*
X1705250Y1124246D01*
X1703802Y1126754D01*
X1701754Y1128802D01*
X1699246Y1130250D01*
X1696500Y1130986D01*
D02*
G37*
G36*
X1693500D02*
X1690754Y1130250D01*
X1688246Y1128802D01*
X1686198Y1126754D01*
X1684750Y1124246D01*
X1684014Y1121500D01*
X1693500D01*
Y1130986D01*
D02*
G37*
G36*
X1705986Y1118500D02*
X1696500D01*
Y1109014D01*
X1699246Y1109750D01*
X1701754Y1111198D01*
X1703802Y1113246D01*
X1705250Y1115754D01*
X1705986Y1118500D01*
D02*
G37*
G36*
X1693500D02*
X1684014D01*
X1684750Y1115754D01*
X1686198Y1113246D01*
X1688246Y1111198D01*
X1690754Y1109750D01*
X1693500Y1109014D01*
Y1118500D01*
D02*
G37*
G36*
X1676750Y1132103D02*
X1663250D01*
X1661202Y1131695D01*
X1659465Y1130535D01*
X1658305Y1128798D01*
X1657897Y1126750D01*
Y1113250D01*
X1658305Y1111202D01*
X1659465Y1109465D01*
X1661202Y1108305D01*
X1663250Y1107897D01*
X1676750D01*
X1678798Y1108305D01*
X1680535Y1109465D01*
X1681695Y1111202D01*
X1682103Y1113250D01*
Y1126750D01*
X1681695Y1128798D01*
X1680535Y1130535D01*
X1678798Y1131695D01*
X1676750Y1132103D01*
D02*
G37*
%LPD*%
G36*
X1350000Y1167000D02*
X1301000D01*
X1285000Y1183000D01*
Y1221000D01*
X1307000Y1243000D01*
X1350000D01*
Y1167000D01*
D02*
G37*
G36*
X1216000Y1183000D02*
X1200000D01*
X1177000Y1160000D01*
X995000D01*
X970000Y1185000D01*
X956000D01*
Y1215000D01*
X986000Y1215000D01*
X1013000Y1188000D01*
X1164000D01*
X1193000Y1217000D01*
X1216000D01*
Y1183000D01*
D02*
G37*
%LPC*%
G36*
X1346750Y1136123D02*
X1325250D01*
X1324930Y1136059D01*
X1307000D01*
X1307000Y1136059D01*
X1305829Y1135826D01*
X1304837Y1135163D01*
X1304837Y1135163D01*
X1282837Y1113163D01*
X1282174Y1112170D01*
X1281941Y1111000D01*
X1281941Y1111000D01*
Y1073000D01*
X1281941Y1073000D01*
X1282174Y1071830D01*
X1282837Y1070837D01*
X1298837Y1054837D01*
X1299830Y1054174D01*
X1301000Y1053941D01*
X1301000Y1053941D01*
X1324930D01*
X1325250Y1053878D01*
X1346750D01*
X1347070Y1053941D01*
X1350000D01*
X1351171Y1054174D01*
X1352163Y1054837D01*
X1352826Y1055829D01*
X1353059Y1057000D01*
Y1059930D01*
X1353123Y1060250D01*
Y1079750D01*
X1353059Y1080070D01*
Y1109930D01*
X1353123Y1110250D01*
Y1129750D01*
X1353059Y1130070D01*
Y1133000D01*
X1352826Y1134171D01*
X1352163Y1135163D01*
X1351171Y1135826D01*
X1350000Y1136059D01*
X1347070D01*
X1346750Y1136123D01*
D02*
G37*
G36*
X1419750Y1135103D02*
X1410500D01*
Y1120000D01*
X1407500D01*
Y1135103D01*
X1398250D01*
X1396202Y1134695D01*
X1394465Y1133535D01*
X1393305Y1131798D01*
X1392897Y1129750D01*
Y1122203D01*
X1392837Y1122163D01*
X1392174Y1121171D01*
X1391941Y1120000D01*
Y1070000D01*
X1392174Y1068829D01*
X1392837Y1067837D01*
X1392897Y1067797D01*
Y1060250D01*
X1393305Y1058202D01*
X1394465Y1056465D01*
X1396202Y1055305D01*
X1398250Y1054897D01*
X1407500D01*
Y1070000D01*
X1410500D01*
Y1054897D01*
X1419750D01*
X1421799Y1055305D01*
X1423535Y1056465D01*
X1424695Y1058202D01*
X1425103Y1060250D01*
Y1067797D01*
X1425163Y1067837D01*
X1425826Y1068829D01*
X1426059Y1070000D01*
Y1120000D01*
X1425826Y1121171D01*
X1425163Y1122163D01*
X1425103Y1122203D01*
Y1129750D01*
X1424695Y1131798D01*
X1423535Y1133535D01*
X1421799Y1134695D01*
X1419750Y1135103D01*
D02*
G37*
G36*
X1147582Y1126996D02*
X1147502D01*
Y1116496D01*
X1158002D01*
Y1116576D01*
X1157185Y1119628D01*
X1155605Y1122364D01*
X1153371Y1124598D01*
X1150634Y1126178D01*
X1147582Y1126996D01*
D02*
G37*
G36*
X1144502D02*
X1144423D01*
X1141371Y1126178D01*
X1138634Y1124598D01*
X1136400Y1122364D01*
X1134820Y1119628D01*
X1134002Y1116576D01*
Y1116496D01*
X1144502D01*
Y1126996D01*
D02*
G37*
G36*
X1037582D02*
X1037502D01*
Y1116496D01*
X1048002D01*
Y1116576D01*
X1047185Y1119628D01*
X1045605Y1122364D01*
X1043371Y1124598D01*
X1040634Y1126178D01*
X1037582Y1126996D01*
D02*
G37*
G36*
X1034502D02*
X1034423D01*
X1031371Y1126178D01*
X1028634Y1124598D01*
X1026400Y1122364D01*
X1024820Y1119628D01*
X1024002Y1116576D01*
Y1116496D01*
X1034502D01*
Y1126996D01*
D02*
G37*
G36*
X1226125Y1111125D02*
X1205875D01*
X1203388Y1110630D01*
X1202533Y1110059D01*
X1193000D01*
X1193000Y1110059D01*
X1191830Y1109826D01*
X1190837Y1109163D01*
X1162733Y1081059D01*
X1014267D01*
X988163Y1107163D01*
X987170Y1107826D01*
X986000Y1108059D01*
X986000Y1108059D01*
X956000Y1108059D01*
X955704Y1108000D01*
X954227D01*
X950750Y1107308D01*
X947474Y1105951D01*
X944526Y1103981D01*
X942019Y1101474D01*
X940049Y1098526D01*
X938692Y1095250D01*
X938000Y1091773D01*
Y1088227D01*
X938692Y1084750D01*
X940049Y1081474D01*
X942019Y1078526D01*
X944526Y1076019D01*
X947474Y1074049D01*
X950750Y1072692D01*
X954227Y1072000D01*
X955705D01*
X956000Y1071941D01*
X968733D01*
X992837Y1047837D01*
X993829Y1047174D01*
X995000Y1046941D01*
X995000Y1046941D01*
X1177000D01*
X1178170Y1047174D01*
X1178568Y1047440D01*
X1179163Y1047837D01*
X1179163Y1047837D01*
X1201267Y1069941D01*
X1202533D01*
X1203388Y1069370D01*
X1205875Y1068875D01*
X1226125D01*
X1228612Y1069370D01*
X1230721Y1070779D01*
X1232130Y1072888D01*
X1232625Y1075375D01*
Y1104625D01*
X1232130Y1107112D01*
X1230721Y1109221D01*
X1228612Y1110630D01*
X1226125Y1111125D01*
D02*
G37*
G36*
X1158002Y1113496D02*
X1147502D01*
Y1102996D01*
X1147582D01*
X1150634Y1103814D01*
X1153371Y1105394D01*
X1155605Y1107628D01*
X1157185Y1110364D01*
X1158002Y1113416D01*
Y1113496D01*
D02*
G37*
G36*
X1144502D02*
X1134002D01*
Y1113416D01*
X1134820Y1110364D01*
X1136400Y1107628D01*
X1138634Y1105394D01*
X1141371Y1103814D01*
X1144423Y1102996D01*
X1144502D01*
Y1113496D01*
D02*
G37*
G36*
X1048002Y1113496D02*
X1037502D01*
Y1102996D01*
X1037582D01*
X1040634Y1103814D01*
X1043371Y1105394D01*
X1045605Y1107628D01*
X1047185Y1110364D01*
X1048002Y1113416D01*
Y1113496D01*
D02*
G37*
G36*
X1034502D02*
X1024002D01*
Y1113416D01*
X1024820Y1110364D01*
X1026400Y1107628D01*
X1028634Y1105394D01*
X1031371Y1103814D01*
X1034423Y1102996D01*
X1034502D01*
Y1113496D01*
D02*
G37*
G36*
X1696500Y1060986D02*
Y1051500D01*
X1705986D01*
X1705250Y1054246D01*
X1703802Y1056754D01*
X1701754Y1058802D01*
X1699246Y1060250D01*
X1696500Y1060986D01*
D02*
G37*
G36*
X1693500D02*
X1690754Y1060250D01*
X1688246Y1058802D01*
X1686198Y1056754D01*
X1684750Y1054246D01*
X1684014Y1051500D01*
X1693500D01*
Y1060986D01*
D02*
G37*
G36*
X1705986Y1048500D02*
X1696500D01*
Y1039014D01*
X1699246Y1039750D01*
X1701754Y1041198D01*
X1703802Y1043246D01*
X1705250Y1045754D01*
X1705986Y1048500D01*
D02*
G37*
G36*
X1693500D02*
X1684014D01*
X1684750Y1045754D01*
X1686198Y1043246D01*
X1688246Y1041198D01*
X1690754Y1039750D01*
X1693500Y1039014D01*
Y1048500D01*
D02*
G37*
G36*
X1676750Y1062103D02*
X1663250D01*
X1661202Y1061695D01*
X1659465Y1060535D01*
X1658305Y1058798D01*
X1657897Y1056750D01*
Y1043250D01*
X1658305Y1041202D01*
X1659465Y1039465D01*
X1661202Y1038305D01*
X1663250Y1037897D01*
X1676750D01*
X1678798Y1038305D01*
X1680535Y1039465D01*
X1681695Y1041202D01*
X1682103Y1043250D01*
Y1056750D01*
X1681695Y1058798D01*
X1680535Y1060535D01*
X1678798Y1061695D01*
X1676750Y1062103D01*
D02*
G37*
%LPD*%
G36*
X1350000Y1057000D02*
X1301000D01*
X1285000Y1073000D01*
Y1111000D01*
X1307000Y1133000D01*
X1350000D01*
Y1057000D01*
D02*
G37*
G36*
X1216000Y1073000D02*
X1200000D01*
X1177000Y1050000D01*
X995000D01*
X970000Y1075000D01*
X956000D01*
Y1105000D01*
X986000Y1105000D01*
X1013000Y1078000D01*
X1164000D01*
X1193000Y1107000D01*
X1216000D01*
Y1073000D01*
D02*
G37*
%LPC*%
G36*
X1346750Y1026123D02*
X1325250D01*
X1324930Y1026059D01*
X1307000D01*
X1307000Y1026059D01*
X1305829Y1025826D01*
X1304837Y1025163D01*
X1304837Y1025163D01*
X1282837Y1003163D01*
X1282174Y1002170D01*
X1281941Y1001000D01*
X1281941Y1001000D01*
Y963000D01*
X1281941Y963000D01*
X1282174Y961830D01*
X1282837Y960837D01*
X1298837Y944837D01*
X1299830Y944174D01*
X1301000Y943941D01*
X1301000Y943941D01*
X1324930D01*
X1325250Y943878D01*
X1346750D01*
X1347070Y943941D01*
X1350000D01*
X1351171Y944174D01*
X1352163Y944837D01*
X1352826Y945829D01*
X1353059Y947000D01*
Y949930D01*
X1353123Y950250D01*
Y969750D01*
X1353059Y970070D01*
Y999930D01*
X1353123Y1000250D01*
Y1019750D01*
X1353059Y1020070D01*
Y1023000D01*
X1352826Y1024171D01*
X1352163Y1025163D01*
X1351171Y1025826D01*
X1350000Y1026059D01*
X1347070D01*
X1346750Y1026123D01*
D02*
G37*
G36*
X1419750Y1025103D02*
X1410500D01*
Y1010000D01*
X1407500D01*
Y1025103D01*
X1398250D01*
X1396202Y1024695D01*
X1394465Y1023535D01*
X1393305Y1021798D01*
X1392897Y1019750D01*
Y1012203D01*
X1392837Y1012163D01*
X1392174Y1011171D01*
X1391941Y1010000D01*
Y960000D01*
X1392174Y958829D01*
X1392837Y957837D01*
X1392897Y957797D01*
Y950250D01*
X1393305Y948202D01*
X1394465Y946465D01*
X1396202Y945305D01*
X1398250Y944897D01*
X1407500D01*
Y960000D01*
X1410500D01*
Y944897D01*
X1419750D01*
X1421799Y945305D01*
X1423535Y946465D01*
X1424695Y948202D01*
X1425103Y950250D01*
Y957797D01*
X1425163Y957837D01*
X1425826Y958829D01*
X1426059Y960000D01*
Y1010000D01*
X1425826Y1011171D01*
X1425163Y1012163D01*
X1425103Y1012203D01*
Y1019750D01*
X1424695Y1021798D01*
X1423535Y1023535D01*
X1421799Y1024695D01*
X1419750Y1025103D01*
D02*
G37*
G36*
X1147582Y1016996D02*
X1147502D01*
Y1006496D01*
X1158002D01*
Y1006576D01*
X1157185Y1009628D01*
X1155605Y1012364D01*
X1153371Y1014598D01*
X1150634Y1016178D01*
X1147582Y1016996D01*
D02*
G37*
G36*
X1037582D02*
X1037502D01*
Y1006496D01*
X1048002D01*
Y1006576D01*
X1047185Y1009628D01*
X1045605Y1012364D01*
X1043371Y1014598D01*
X1040634Y1016178D01*
X1037582Y1016996D01*
D02*
G37*
G36*
X1144502D02*
X1144423D01*
X1141371Y1016178D01*
X1138634Y1014598D01*
X1136400Y1012364D01*
X1134820Y1009628D01*
X1134002Y1006576D01*
Y1006496D01*
X1144502D01*
Y1016996D01*
D02*
G37*
G36*
X1034502D02*
X1034423D01*
X1031371Y1016178D01*
X1028634Y1014598D01*
X1026400Y1012364D01*
X1024820Y1009628D01*
X1024002Y1006576D01*
Y1006496D01*
X1034502D01*
Y1016996D01*
D02*
G37*
G36*
X1226125Y1001125D02*
X1205875D01*
X1203388Y1000630D01*
X1202533Y1000059D01*
X1193000D01*
X1193000Y1000059D01*
X1191830Y999826D01*
X1190837Y999163D01*
X1162733Y971059D01*
X1014267D01*
X988163Y997163D01*
X987170Y997826D01*
X986000Y998059D01*
X986000Y998059D01*
X956000Y998059D01*
X955704Y998000D01*
X954227D01*
X950750Y997308D01*
X947474Y995951D01*
X944526Y993981D01*
X942019Y991474D01*
X940049Y988526D01*
X938692Y985250D01*
X938000Y981773D01*
Y978227D01*
X938692Y974750D01*
X940049Y971474D01*
X942019Y968526D01*
X944526Y966019D01*
X947474Y964049D01*
X950750Y962692D01*
X954227Y962000D01*
X955704D01*
X956000Y961941D01*
X968733D01*
X992837Y937837D01*
X993829Y937174D01*
X995000Y936941D01*
X995000Y936941D01*
X1177000D01*
X1178171Y937174D01*
X1178568Y937440D01*
X1179163Y937837D01*
X1179163Y937837D01*
X1201267Y959941D01*
X1202533D01*
X1203388Y959370D01*
X1205875Y958875D01*
X1226125D01*
X1228612Y959370D01*
X1230721Y960779D01*
X1232130Y962888D01*
X1232625Y965375D01*
Y994625D01*
X1232130Y997112D01*
X1230721Y999221D01*
X1228612Y1000630D01*
X1226125Y1001125D01*
D02*
G37*
G36*
X1158002Y1003496D02*
X1147502D01*
Y992996D01*
X1147582D01*
X1150634Y993814D01*
X1153371Y995394D01*
X1155605Y997628D01*
X1157185Y1000364D01*
X1158002Y1003416D01*
Y1003496D01*
D02*
G37*
G36*
X1144502D02*
X1134002D01*
Y1003416D01*
X1134820Y1000364D01*
X1136400Y997628D01*
X1138634Y995394D01*
X1141371Y993814D01*
X1144423Y992996D01*
X1144502D01*
Y1003496D01*
D02*
G37*
G36*
X1048002D02*
X1037502D01*
Y992996D01*
X1037582D01*
X1040634Y993814D01*
X1043371Y995394D01*
X1045605Y997628D01*
X1047185Y1000364D01*
X1048002Y1003416D01*
Y1003496D01*
D02*
G37*
G36*
X1034502D02*
X1024002D01*
Y1003416D01*
X1024820Y1000364D01*
X1026400Y997628D01*
X1028634Y995394D01*
X1031371Y993814D01*
X1034423Y992996D01*
X1034502D01*
Y1003496D01*
D02*
G37*
G36*
X1696500Y990986D02*
Y981500D01*
X1705986D01*
X1705250Y984246D01*
X1703802Y986754D01*
X1701754Y988802D01*
X1699246Y990250D01*
X1696500Y990986D01*
D02*
G37*
G36*
X1693500D02*
X1690754Y990250D01*
X1688246Y988802D01*
X1686198Y986754D01*
X1684750Y984246D01*
X1684014Y981500D01*
X1693500D01*
Y990986D01*
D02*
G37*
G36*
X1705986Y978500D02*
X1696500D01*
Y969014D01*
X1699246Y969750D01*
X1701754Y971198D01*
X1703802Y973246D01*
X1705250Y975754D01*
X1705986Y978500D01*
D02*
G37*
G36*
X1693500D02*
X1684014D01*
X1684750Y975754D01*
X1686198Y973246D01*
X1688246Y971198D01*
X1690754Y969750D01*
X1693500Y969014D01*
Y978500D01*
D02*
G37*
G36*
X1676750Y992103D02*
X1663250D01*
X1661202Y991695D01*
X1659465Y990535D01*
X1658305Y988798D01*
X1657897Y986750D01*
Y973250D01*
X1658305Y971202D01*
X1659465Y969465D01*
X1661202Y968305D01*
X1663250Y967897D01*
X1676750D01*
X1678798Y968305D01*
X1680535Y969465D01*
X1681695Y971202D01*
X1682103Y973250D01*
Y986750D01*
X1681695Y988798D01*
X1680535Y990535D01*
X1678798Y991695D01*
X1676750Y992103D01*
D02*
G37*
%LPD*%
G36*
X1350000Y947000D02*
X1301000D01*
X1285000Y963000D01*
Y1001000D01*
X1307000Y1023000D01*
X1350000D01*
Y947000D01*
D02*
G37*
G36*
X1216000Y963000D02*
X1200000D01*
X1177000Y940000D01*
X995000D01*
X970000Y965000D01*
X956000D01*
Y995000D01*
X986000Y995000D01*
X1013000Y968000D01*
X1164000D01*
X1193000Y997000D01*
X1216000D01*
Y963000D01*
D02*
G37*
%LPC*%
G36*
X1346750Y916123D02*
X1325250D01*
X1324930Y916059D01*
X1307000D01*
X1307000Y916059D01*
X1305829Y915826D01*
X1304837Y915163D01*
X1304837Y915163D01*
X1282837Y893163D01*
X1282174Y892170D01*
X1281941Y891000D01*
X1281941Y891000D01*
Y853000D01*
X1281941Y853000D01*
X1282174Y851830D01*
X1282837Y850837D01*
X1298837Y834837D01*
X1299830Y834174D01*
X1301000Y833941D01*
X1301000Y833941D01*
X1324930D01*
X1325250Y833878D01*
X1346750D01*
X1347070Y833941D01*
X1350000D01*
X1351171Y834174D01*
X1352163Y834837D01*
X1352826Y835829D01*
X1353059Y837000D01*
Y839930D01*
X1353123Y840250D01*
Y859750D01*
X1353059Y860070D01*
Y889930D01*
X1353123Y890250D01*
Y909750D01*
X1353059Y910070D01*
Y913000D01*
X1352826Y914171D01*
X1352163Y915163D01*
X1351171Y915826D01*
X1350000Y916059D01*
X1347070D01*
X1346750Y916123D01*
D02*
G37*
G36*
X1696500Y920986D02*
Y911500D01*
X1705986D01*
X1705250Y914246D01*
X1703802Y916754D01*
X1701754Y918802D01*
X1699246Y920250D01*
X1696500Y920986D01*
D02*
G37*
G36*
X1693500D02*
X1690754Y920250D01*
X1688246Y918802D01*
X1686198Y916754D01*
X1684750Y914246D01*
X1684014Y911500D01*
X1693500D01*
Y920986D01*
D02*
G37*
G36*
X1419750Y915103D02*
X1410500D01*
Y900000D01*
X1407500D01*
Y915103D01*
X1398250D01*
X1396202Y914695D01*
X1394465Y913535D01*
X1393305Y911798D01*
X1392897Y909750D01*
Y902203D01*
X1392837Y902163D01*
X1392174Y901171D01*
X1391941Y900000D01*
Y850000D01*
X1392174Y848829D01*
X1392837Y847837D01*
X1392897Y847797D01*
Y840250D01*
X1393305Y838202D01*
X1394465Y836465D01*
X1396202Y835305D01*
X1398250Y834897D01*
X1407500D01*
Y850000D01*
X1410500D01*
Y834897D01*
X1419750D01*
X1421799Y835305D01*
X1423535Y836465D01*
X1424695Y838202D01*
X1425103Y840250D01*
Y847797D01*
X1425163Y847837D01*
X1425826Y848829D01*
X1426059Y850000D01*
Y900000D01*
X1425826Y901171D01*
X1425163Y902163D01*
X1425103Y902203D01*
Y909750D01*
X1424695Y911798D01*
X1423535Y913535D01*
X1421799Y914695D01*
X1419750Y915103D01*
D02*
G37*
G36*
X1705986Y908500D02*
X1696500D01*
Y899014D01*
X1699246Y899750D01*
X1701754Y901198D01*
X1703802Y903246D01*
X1705250Y905754D01*
X1705986Y908500D01*
D02*
G37*
G36*
X1693500D02*
X1684014D01*
X1684750Y905754D01*
X1686198Y903246D01*
X1688246Y901198D01*
X1690754Y899750D01*
X1693500Y899014D01*
Y908500D01*
D02*
G37*
G36*
X1676750Y922103D02*
X1663250D01*
X1661202Y921695D01*
X1659465Y920535D01*
X1658305Y918798D01*
X1657897Y916750D01*
Y903250D01*
X1658305Y901202D01*
X1659465Y899465D01*
X1661202Y898305D01*
X1663250Y897897D01*
X1676750D01*
X1678798Y898305D01*
X1680535Y899465D01*
X1681695Y901202D01*
X1682103Y903250D01*
Y916750D01*
X1681695Y918798D01*
X1680535Y920535D01*
X1678798Y921695D01*
X1676750Y922103D01*
D02*
G37*
G36*
X1147582Y906996D02*
X1147502D01*
Y896496D01*
X1158002D01*
Y896576D01*
X1157185Y899628D01*
X1155605Y902364D01*
X1153371Y904598D01*
X1150634Y906178D01*
X1147582Y906996D01*
D02*
G37*
G36*
X1037582D02*
X1037502D01*
Y896496D01*
X1048002D01*
Y896576D01*
X1047185Y899628D01*
X1045605Y902364D01*
X1043371Y904598D01*
X1040634Y906178D01*
X1037582Y906996D01*
D02*
G37*
G36*
X1144502D02*
X1144423D01*
X1141371Y906178D01*
X1138634Y904598D01*
X1136400Y902364D01*
X1134820Y899628D01*
X1134002Y896576D01*
Y896496D01*
X1144502D01*
Y906996D01*
D02*
G37*
G36*
X1034502D02*
X1034423D01*
X1031371Y906178D01*
X1028634Y904598D01*
X1026400Y902364D01*
X1024820Y899628D01*
X1024002Y896576D01*
Y896496D01*
X1034502D01*
Y906996D01*
D02*
G37*
G36*
X1226125Y891125D02*
X1205875D01*
X1203388Y890630D01*
X1202533Y890059D01*
X1193000D01*
X1193000Y890059D01*
X1191830Y889826D01*
X1190837Y889163D01*
X1162733Y861059D01*
X1014267D01*
X988163Y887163D01*
X987170Y887826D01*
X986000Y888059D01*
X986000Y888059D01*
X956000Y888059D01*
X955704Y888000D01*
X954227D01*
X950750Y887308D01*
X947474Y885951D01*
X944526Y883981D01*
X942019Y881474D01*
X940049Y878526D01*
X938692Y875250D01*
X938000Y871773D01*
Y868227D01*
X938692Y864750D01*
X940049Y861474D01*
X942019Y858526D01*
X944526Y856019D01*
X947474Y854049D01*
X950750Y852692D01*
X954227Y852000D01*
X955705D01*
X956000Y851941D01*
X968733D01*
X992837Y827837D01*
X993829Y827174D01*
X995000Y826941D01*
X995000Y826941D01*
X1177000D01*
X1178171Y827174D01*
X1178568Y827440D01*
X1179163Y827837D01*
X1179163Y827837D01*
X1201267Y849941D01*
X1202533D01*
X1203388Y849370D01*
X1205875Y848875D01*
X1226125D01*
X1228612Y849370D01*
X1230721Y850779D01*
X1232130Y852888D01*
X1232625Y855375D01*
Y884625D01*
X1232130Y887112D01*
X1230721Y889221D01*
X1228612Y890630D01*
X1226125Y891125D01*
D02*
G37*
G36*
X1158002Y893496D02*
X1147502D01*
Y882996D01*
X1147582D01*
X1150634Y883814D01*
X1153371Y885394D01*
X1155605Y887628D01*
X1157185Y890364D01*
X1158002Y893416D01*
Y893496D01*
D02*
G37*
G36*
X1144502D02*
X1134002D01*
Y893416D01*
X1134820Y890364D01*
X1136400Y887628D01*
X1138634Y885394D01*
X1141371Y883814D01*
X1144423Y882996D01*
X1144502D01*
Y893496D01*
D02*
G37*
G36*
X1048002D02*
X1037502D01*
Y882996D01*
X1037582D01*
X1040634Y883814D01*
X1043371Y885394D01*
X1045605Y887628D01*
X1047185Y890364D01*
X1048002Y893416D01*
Y893496D01*
D02*
G37*
G36*
X1034502D02*
X1024002D01*
Y893416D01*
X1024820Y890364D01*
X1026400Y887628D01*
X1028634Y885394D01*
X1031371Y883814D01*
X1034423Y882996D01*
X1034502D01*
Y893496D01*
D02*
G37*
%LPD*%
G36*
X1350000Y837000D02*
X1301000D01*
X1285000Y853000D01*
Y891000D01*
X1307000Y913000D01*
X1350000D01*
Y837000D01*
D02*
G37*
G36*
X1216000Y853000D02*
X1200000D01*
X1177000Y830000D01*
X995000D01*
X970000Y855000D01*
X956000D01*
Y885000D01*
X986000Y885000D01*
X1013000Y858000D01*
X1164000D01*
X1193000Y887000D01*
X1216000D01*
Y853000D01*
D02*
G37*
%LPC*%
G36*
X1696500Y850986D02*
Y841500D01*
X1705986D01*
X1705250Y844246D01*
X1703802Y846754D01*
X1701754Y848802D01*
X1699246Y850250D01*
X1696500Y850986D01*
D02*
G37*
G36*
X1693500D02*
X1690754Y850250D01*
X1688246Y848802D01*
X1686198Y846754D01*
X1684750Y844246D01*
X1684014Y841500D01*
X1693500D01*
Y850986D01*
D02*
G37*
G36*
X1705986Y838500D02*
X1696500D01*
Y829014D01*
X1699246Y829750D01*
X1701754Y831198D01*
X1703802Y833246D01*
X1705250Y835754D01*
X1705986Y838500D01*
D02*
G37*
G36*
X1693500D02*
X1684014D01*
X1684750Y835754D01*
X1686198Y833246D01*
X1688246Y831198D01*
X1690754Y829750D01*
X1693500Y829014D01*
Y838500D01*
D02*
G37*
G36*
X1676750Y852103D02*
X1663250D01*
X1661202Y851695D01*
X1659465Y850535D01*
X1658305Y848798D01*
X1657897Y846750D01*
Y833250D01*
X1658305Y831202D01*
X1659465Y829465D01*
X1661202Y828305D01*
X1663250Y827897D01*
X1676750D01*
X1678798Y828305D01*
X1680535Y829465D01*
X1681695Y831202D01*
X1682103Y833250D01*
Y846750D01*
X1681695Y848798D01*
X1680535Y850535D01*
X1678798Y851695D01*
X1676750Y852103D01*
D02*
G37*
G36*
X1346750Y806123D02*
X1325250D01*
X1324930Y806059D01*
X1307000D01*
X1307000Y806059D01*
X1305829Y805826D01*
X1304837Y805163D01*
X1304837Y805163D01*
X1282837Y783163D01*
X1282174Y782170D01*
X1281941Y781000D01*
X1281941Y781000D01*
Y744267D01*
X1269837Y732163D01*
X1269174Y731171D01*
X1268941Y730000D01*
X1268941Y730000D01*
Y681070D01*
X1268877Y680750D01*
Y659250D01*
X1269363Y656811D01*
X1270744Y654744D01*
X1272811Y653363D01*
X1275250Y652878D01*
X1294750D01*
X1295070Y652941D01*
X1297819D01*
X1298141Y652513D01*
X1298400Y651726D01*
X1295733Y649059D01*
X1280000D01*
X1280000Y649059D01*
X1278829Y648826D01*
X1277837Y648163D01*
X1272837Y643163D01*
X1272174Y642170D01*
X1271941Y641000D01*
X1271941Y641000D01*
Y621000D01*
X1271941Y621000D01*
X1272174Y619829D01*
X1272837Y618837D01*
X1272837Y618837D01*
X1276837Y614837D01*
X1277532Y614373D01*
X1277201Y613103D01*
X1275250D01*
X1273202Y612695D01*
X1271465Y611535D01*
X1270305Y609798D01*
X1269897Y607750D01*
Y598500D01*
X1285000D01*
Y597000D01*
X1286500D01*
Y580897D01*
X1294750D01*
X1296798Y581305D01*
X1298535Y582465D01*
X1299695Y584202D01*
X1300103Y586250D01*
Y593192D01*
X1333000D01*
X1333000Y593192D01*
X1333500Y593258D01*
Y602000D01*
X1335000D01*
Y603500D01*
X1357000D01*
Y609500D01*
X1358000D01*
Y612192D01*
X1362180D01*
X1362192Y612180D01*
Y577000D01*
X1362424Y575238D01*
X1363104Y573596D01*
X1364186Y572186D01*
X1365596Y571104D01*
X1367238Y570424D01*
X1369000Y570192D01*
X1370762Y570424D01*
X1372404Y571104D01*
X1373814Y572186D01*
X1374896Y573596D01*
X1375576Y575238D01*
X1375808Y577000D01*
Y615000D01*
X1375576Y616762D01*
X1374896Y618404D01*
X1373814Y619814D01*
X1373814Y619814D01*
X1369814Y623814D01*
X1368404Y624896D01*
X1366762Y625576D01*
X1365881Y625692D01*
X1365000Y625808D01*
X1365000Y625808D01*
X1358000D01*
Y628500D01*
X1358983Y629192D01*
X1382000D01*
Y580000D01*
X1429500D01*
Y636000D01*
Y692000D01*
X1382000D01*
Y642808D01*
X1358983D01*
X1358000Y643500D01*
Y660500D01*
Y679500D01*
X1353059D01*
Y693378D01*
X1353768Y694439D01*
X1353879Y695000D01*
X1357140D01*
X1357174Y694829D01*
X1357837Y693837D01*
X1358829Y693174D01*
X1360000Y692941D01*
X1361500D01*
Y700000D01*
Y707059D01*
X1360000D01*
X1358829Y706826D01*
X1357837Y706163D01*
X1357174Y705171D01*
X1357140Y705000D01*
X1353879D01*
X1353768Y705561D01*
X1353059Y706622D01*
Y729930D01*
X1353123Y730250D01*
Y749750D01*
X1353059Y750070D01*
Y779930D01*
X1353123Y780250D01*
Y799750D01*
X1353059Y800070D01*
Y803000D01*
X1352826Y804171D01*
X1352163Y805163D01*
X1351171Y805826D01*
X1350000Y806059D01*
X1347070D01*
X1346750Y806123D01*
D02*
G37*
G36*
X1419750Y805103D02*
X1410500D01*
Y790000D01*
X1407500D01*
Y805103D01*
X1398250D01*
X1396202Y804695D01*
X1394465Y803535D01*
X1393305Y801798D01*
X1392897Y799750D01*
Y792203D01*
X1392837Y792163D01*
X1392174Y791171D01*
X1391941Y790000D01*
Y740000D01*
X1392174Y738829D01*
X1392837Y737837D01*
X1392897Y737797D01*
Y730250D01*
X1393305Y728202D01*
X1394465Y726465D01*
X1396202Y725305D01*
X1398250Y724897D01*
X1407500D01*
Y740000D01*
X1410500D01*
Y724897D01*
X1419750D01*
X1421799Y725305D01*
X1423535Y726465D01*
X1424695Y728202D01*
X1425103Y730250D01*
Y737797D01*
X1425163Y737837D01*
X1425826Y738829D01*
X1426059Y740000D01*
Y790000D01*
X1425826Y791171D01*
X1425163Y792163D01*
X1425103Y792203D01*
Y799750D01*
X1424695Y801798D01*
X1423535Y803535D01*
X1421799Y804695D01*
X1419750Y805103D01*
D02*
G37*
G36*
X1147582Y796996D02*
X1147502D01*
Y786496D01*
X1158002D01*
Y786576D01*
X1157185Y789628D01*
X1155605Y792364D01*
X1153371Y794598D01*
X1150634Y796178D01*
X1147582Y796996D01*
D02*
G37*
G36*
X1037582D02*
X1037502D01*
Y786496D01*
X1048002D01*
Y786576D01*
X1047185Y789628D01*
X1045605Y792364D01*
X1043371Y794598D01*
X1040634Y796178D01*
X1037582Y796996D01*
D02*
G37*
G36*
X1144502D02*
X1144423D01*
X1141371Y796178D01*
X1138634Y794598D01*
X1136400Y792364D01*
X1134820Y789628D01*
X1134002Y786576D01*
Y786496D01*
X1144502D01*
Y796996D01*
D02*
G37*
G36*
X1034502D02*
X1034423D01*
X1031371Y796178D01*
X1028634Y794598D01*
X1026400Y792364D01*
X1024820Y789628D01*
X1024002Y786576D01*
Y786496D01*
X1034502D01*
Y796996D01*
D02*
G37*
G36*
X1158002Y783496D02*
X1147502D01*
Y772996D01*
X1147582D01*
X1150634Y773814D01*
X1153371Y775394D01*
X1155605Y777628D01*
X1157185Y780364D01*
X1158002Y783416D01*
Y783496D01*
D02*
G37*
G36*
X1144502D02*
X1134002D01*
Y783416D01*
X1134820Y780364D01*
X1136400Y777628D01*
X1138634Y775394D01*
X1141371Y773814D01*
X1144423Y772996D01*
X1144502D01*
Y783496D01*
D02*
G37*
G36*
X1048002D02*
X1037502D01*
Y772996D01*
X1037582D01*
X1040634Y773814D01*
X1043371Y775394D01*
X1045605Y777628D01*
X1047185Y780364D01*
X1048002Y783416D01*
Y783496D01*
D02*
G37*
G36*
X1034502D02*
X1024002D01*
Y783416D01*
X1024820Y780364D01*
X1026400Y777628D01*
X1028634Y775394D01*
X1031371Y773814D01*
X1034423Y772996D01*
X1034502D01*
Y783496D01*
D02*
G37*
G36*
X1696500Y780986D02*
Y771500D01*
X1705986D01*
X1705250Y774246D01*
X1703802Y776754D01*
X1701754Y778802D01*
X1699246Y780250D01*
X1696500Y780986D01*
D02*
G37*
G36*
X1693500D02*
X1690754Y780250D01*
X1688246Y778802D01*
X1686198Y776754D01*
X1684750Y774246D01*
X1684014Y771500D01*
X1693500D01*
Y780986D01*
D02*
G37*
G36*
X1705986Y768500D02*
X1696500D01*
Y759014D01*
X1699246Y759750D01*
X1701754Y761198D01*
X1703802Y763246D01*
X1705250Y765754D01*
X1705986Y768500D01*
D02*
G37*
G36*
X1693500D02*
X1684014D01*
X1684750Y765754D01*
X1686198Y763246D01*
X1688246Y761198D01*
X1690754Y759750D01*
X1693500Y759014D01*
Y768500D01*
D02*
G37*
G36*
X1676750Y782103D02*
X1663250D01*
X1661202Y781695D01*
X1659465Y780535D01*
X1658305Y778798D01*
X1657897Y776750D01*
Y763250D01*
X1658305Y761202D01*
X1659465Y759465D01*
X1661202Y758305D01*
X1663250Y757897D01*
X1676750D01*
X1678798Y758305D01*
X1680535Y759465D01*
X1681695Y761202D01*
X1682103Y763250D01*
Y776750D01*
X1681695Y778798D01*
X1680535Y780535D01*
X1678798Y781695D01*
X1676750Y782103D01*
D02*
G37*
G36*
X1513000Y730078D02*
X1506500D01*
Y721500D01*
X1517078D01*
Y726000D01*
X1516768Y727561D01*
X1515884Y728884D01*
X1514561Y729768D01*
X1513000Y730078D01*
D02*
G37*
G36*
X1503500D02*
X1497000D01*
X1495439Y729768D01*
X1494116Y728884D01*
X1493232Y727561D01*
X1492922Y726000D01*
Y721500D01*
X1503500D01*
Y730078D01*
D02*
G37*
G36*
X1517078Y718500D02*
X1506500D01*
Y709922D01*
X1513000D01*
X1514561Y710232D01*
X1515884Y711116D01*
X1516768Y712439D01*
X1517078Y714000D01*
Y718500D01*
D02*
G37*
G36*
X1503500D02*
X1492922D01*
Y714000D01*
X1493232Y712439D01*
X1494116Y711116D01*
X1495439Y710232D01*
X1497000Y709922D01*
X1503500D01*
Y718500D01*
D02*
G37*
G36*
X1553000Y731098D02*
X1537000D01*
X1535049Y730710D01*
X1533395Y729605D01*
X1532290Y727951D01*
X1531902Y726000D01*
Y714000D01*
X1531941Y713803D01*
Y696625D01*
X1530375D01*
X1527888Y696130D01*
X1525779Y694721D01*
X1525336Y694059D01*
X1495000D01*
X1493829Y693826D01*
X1492837Y693163D01*
X1492174Y692170D01*
X1491941Y691000D01*
Y668000D01*
X1492174Y666830D01*
X1492837Y665837D01*
X1493829Y665174D01*
X1495000Y664941D01*
X1526284D01*
X1527888Y663870D01*
X1530375Y663375D01*
X1559625D01*
X1562112Y663870D01*
X1564221Y665279D01*
X1565630Y667388D01*
X1566125Y669875D01*
Y690125D01*
X1565630Y692612D01*
X1564221Y694721D01*
X1562112Y696130D01*
X1559625Y696625D01*
X1558059D01*
Y711931D01*
X1573220D01*
X1573553Y711598D01*
X1575947Y710216D01*
X1578618Y709500D01*
X1581382D01*
X1584053Y710216D01*
X1586447Y711598D01*
X1588402Y713553D01*
X1589784Y715947D01*
X1590500Y718618D01*
Y721382D01*
X1589784Y724053D01*
X1588402Y726447D01*
X1586447Y728402D01*
X1584053Y729784D01*
X1581382Y730500D01*
X1578618D01*
X1575947Y729784D01*
X1573553Y728402D01*
X1573220Y728069D01*
X1557631D01*
X1556605Y729605D01*
X1554951Y730710D01*
X1553000Y731098D01*
D02*
G37*
G36*
X1366000Y707059D02*
X1364500D01*
Y701500D01*
X1369059D01*
Y704000D01*
X1368826Y705171D01*
X1368163Y706163D01*
X1367171Y706826D01*
X1366000Y707059D01*
D02*
G37*
G36*
X1369059Y698500D02*
X1364500D01*
Y692941D01*
X1366000D01*
X1367171Y693174D01*
X1368163Y693837D01*
X1368826Y694829D01*
X1369059Y696000D01*
Y698500D01*
D02*
G37*
G36*
X1708750Y675103D02*
X1699500D01*
Y661500D01*
X1714103D01*
Y669750D01*
X1713695Y671798D01*
X1712535Y673535D01*
X1710798Y674695D01*
X1708750Y675103D01*
D02*
G37*
G36*
X1696500D02*
X1687250D01*
X1685202Y674695D01*
X1683465Y673535D01*
X1682305Y671798D01*
X1681897Y669750D01*
Y661500D01*
X1696500D01*
Y675103D01*
D02*
G37*
G36*
X1714103Y658500D02*
X1699500D01*
Y644897D01*
X1708750D01*
X1710798Y645305D01*
X1712535Y646465D01*
X1713695Y648202D01*
X1714103Y650250D01*
Y658500D01*
D02*
G37*
G36*
X1696500D02*
X1681897D01*
Y650250D01*
X1682305Y648202D01*
X1683465Y646465D01*
X1685202Y645305D01*
X1687250Y644897D01*
X1696500D01*
Y658500D01*
D02*
G37*
G36*
X1480000Y692000D02*
X1432500D01*
Y637500D01*
X1480000D01*
Y692000D01*
D02*
G37*
G36*
X1635750Y676122D02*
X1614250D01*
X1613930Y676059D01*
X1612000D01*
X1610829Y675826D01*
X1609837Y675163D01*
X1596837Y662163D01*
X1596174Y661171D01*
X1595941Y660000D01*
X1595941Y660000D01*
Y630267D01*
X1578733Y613059D01*
X1562219D01*
X1562112Y613130D01*
X1559625Y613625D01*
X1530375D01*
X1527888Y613130D01*
X1525779Y611721D01*
X1524370Y609612D01*
X1523875Y607125D01*
Y586875D01*
X1524370Y584388D01*
X1525779Y582279D01*
X1527888Y580870D01*
X1530375Y580375D01*
X1559625D01*
X1562112Y580870D01*
X1562219Y580941D01*
X1597000D01*
X1598170Y581174D01*
X1599163Y581837D01*
X1611267Y593941D01*
X1613930D01*
X1614250Y593878D01*
X1635750D01*
X1638189Y594363D01*
X1640256Y595744D01*
X1641637Y597811D01*
X1642122Y600250D01*
Y619750D01*
X1641637Y622189D01*
X1640256Y624256D01*
X1638189Y625637D01*
X1635750Y626122D01*
X1629059D01*
Y643878D01*
X1635750D01*
X1638189Y644363D01*
X1640256Y645744D01*
X1641637Y647811D01*
X1642122Y650250D01*
Y669750D01*
X1641637Y672189D01*
X1640256Y674256D01*
X1638189Y675637D01*
X1635750Y676122D01*
D02*
G37*
G36*
X1708750Y625103D02*
X1699500D01*
Y611500D01*
X1714103D01*
Y619750D01*
X1713695Y621798D01*
X1712535Y623535D01*
X1710798Y624695D01*
X1708750Y625103D01*
D02*
G37*
G36*
X1696500D02*
X1687250D01*
X1685202Y624695D01*
X1683465Y623535D01*
X1682305Y621798D01*
X1681897Y619750D01*
Y611500D01*
X1696500D01*
Y625103D01*
D02*
G37*
G36*
X1714103Y608500D02*
X1699500D01*
Y594897D01*
X1708750D01*
X1710798Y595305D01*
X1712535Y596465D01*
X1713695Y598202D01*
X1714103Y600250D01*
Y608500D01*
D02*
G37*
G36*
X1696500D02*
X1681897D01*
Y600250D01*
X1682305Y598202D01*
X1683465Y596465D01*
X1685202Y595305D01*
X1687250Y594897D01*
X1696500D01*
Y608500D01*
D02*
G37*
G36*
X1357000Y600500D02*
X1336500D01*
Y593500D01*
X1357000D01*
Y600500D01*
D02*
G37*
G36*
X1283500Y595500D02*
X1269897D01*
Y586250D01*
X1270305Y584202D01*
X1271465Y582465D01*
X1273202Y581305D01*
X1275250Y580897D01*
X1283500D01*
Y595500D01*
D02*
G37*
G36*
X1480000Y634500D02*
X1432500D01*
Y580000D01*
X1480000D01*
Y634500D01*
D02*
G37*
G36*
X1212794Y645500D02*
X1207206D01*
X1201687Y644626D01*
X1196373Y642899D01*
X1191394Y640362D01*
X1186873Y637078D01*
X1182922Y633127D01*
X1179638Y628606D01*
X1177101Y623627D01*
X1175374Y618313D01*
X1174500Y612794D01*
Y607206D01*
X1175374Y601687D01*
X1177101Y596373D01*
X1179638Y591394D01*
X1182922Y586873D01*
X1186873Y582922D01*
X1191394Y579638D01*
X1196373Y577101D01*
X1201687Y575374D01*
X1207206Y574500D01*
X1212794D01*
X1218313Y575374D01*
X1223627Y577101D01*
X1228606Y579638D01*
X1233127Y582922D01*
X1237078Y586873D01*
X1240362Y591394D01*
X1242899Y596373D01*
X1244626Y601687D01*
X1245500Y607206D01*
Y612794D01*
X1244626Y618313D01*
X1242899Y623627D01*
X1240362Y628606D01*
X1237078Y633127D01*
X1233127Y637078D01*
X1228606Y640362D01*
X1223627Y642899D01*
X1218313Y644626D01*
X1212794Y645500D01*
D02*
G37*
%LPD*%
G36*
X1350000Y727000D02*
Y677000D01*
X1337000Y664000D01*
X1306000D01*
X1298000Y656000D01*
X1285000D01*
X1272000Y673000D01*
Y730000D01*
X1285000Y743000D01*
X1285000Y743000D01*
Y781000D01*
X1307000Y803000D01*
X1350000D01*
Y727000D01*
D02*
G37*
G36*
X1335000Y648000D02*
X1314000D01*
X1308000Y642000D01*
Y621000D01*
X1304000Y617000D01*
X1279000D01*
X1275000Y621000D01*
Y641000D01*
X1280000Y646000D01*
X1297000D01*
X1309000Y658000D01*
X1335000D01*
Y648000D01*
D02*
G37*
G36*
X1626000Y597000D02*
X1610000D01*
X1597000Y584000D01*
X1545000D01*
Y610000D01*
X1580000D01*
X1599000Y629000D01*
Y660000D01*
X1612000Y673000D01*
X1626000D01*
Y597000D01*
D02*
G37*
D48*
X574600Y800000D02*
D03*
Y744120D02*
D03*
X612700Y800000D02*
D03*
X600000D02*
D03*
X612700Y744120D02*
D03*
X600000D02*
D03*
X587300D02*
D03*
D49*
X474600Y805800D02*
D03*
X525400D02*
D03*
D50*
X500000Y910000D02*
D03*
D51*
X424000Y850000D02*
D03*
Y810000D02*
D03*
X600000Y870000D02*
D03*
Y830000D02*
D03*
D52*
X648120Y860000D02*
D03*
X710000D02*
D03*
X648120Y872700D02*
D03*
X710000D02*
D03*
D53*
X746000Y860000D02*
D03*
X730000D02*
D03*
X1347000Y700000D02*
D03*
X1363000D02*
D03*
X746000Y790000D02*
D03*
X730000D02*
D03*
X694000D02*
D03*
X710000D02*
D03*
X532000Y730000D02*
D03*
X548000D02*
D03*
D54*
X752900Y820500D02*
D03*
X730000Y811000D02*
D03*
Y830000D02*
D03*
D55*
X684000Y823750D02*
D03*
Y836250D02*
D03*
X639000Y796000D02*
D03*
Y780000D02*
D03*
Y766000D02*
D03*
Y750000D02*
D03*
D56*
X710000Y830000D02*
D03*
D57*
X630000Y829000D02*
D03*
X650000D02*
D03*
D58*
X1285000Y670000D02*
D03*
Y597000D02*
D03*
D59*
X1335000Y670000D02*
D03*
Y653000D02*
D03*
Y636000D02*
D03*
Y619000D02*
D03*
Y602000D02*
D03*
D60*
X1431000Y636000D02*
D03*
D61*
X1625000Y660000D02*
D03*
X1698000D02*
D03*
X1625000Y610000D02*
D03*
X1698000D02*
D03*
X1336000Y740000D02*
D03*
X1409000D02*
D03*
X1336000Y790000D02*
D03*
X1409000D02*
D03*
X1336000Y850000D02*
D03*
X1409000D02*
D03*
X1336000Y900000D02*
D03*
X1409000D02*
D03*
X1336000Y960000D02*
D03*
X1409000D02*
D03*
X1336000Y1010000D02*
D03*
X1409000D02*
D03*
X1336000Y1070000D02*
D03*
X1409000D02*
D03*
X1336000Y1120000D02*
D03*
X1409000D02*
D03*
X1336000Y1180000D02*
D03*
X1409000D02*
D03*
X1336000Y1230000D02*
D03*
X1409000D02*
D03*
D62*
X1545000Y597000D02*
D03*
Y680000D02*
D03*
D63*
X1299000Y760000D02*
D03*
X1216000D02*
D03*
X1299000Y870000D02*
D03*
X1216000D02*
D03*
X1299000Y980000D02*
D03*
X1216000D02*
D03*
X1299000Y1090000D02*
D03*
X1216000D02*
D03*
X1299000Y1200000D02*
D03*
X1216000D02*
D03*
D64*
X514000Y740000D02*
D03*
X450000D02*
D03*
X424000D02*
D03*
X360000D02*
D03*
D65*
X1545000Y720000D02*
D03*
X1505000D02*
D03*
D66*
X1545000D02*
X1580000D01*
X629500Y829500D02*
X630000Y829000D01*
X600500Y829500D02*
X629500D01*
X600000Y830000D02*
X600500Y829500D01*
X481000Y891000D02*
X500000Y910000D01*
X433000Y891000D02*
X481000D01*
X424000Y850000D02*
Y882000D01*
X433000Y891000D01*
D67*
X639000Y741000D02*
Y750000D01*
X627676Y741000D02*
X639000D01*
X612700Y744120D02*
X624556D01*
X627676Y741000D01*
X639000Y796000D02*
X640000D01*
X647000Y803000D01*
X665700Y872700D02*
X666000Y873000D01*
X648120Y872700D02*
X665700D01*
X631000Y860000D02*
X648120D01*
X628000Y857000D02*
X631000Y860000D01*
X600000Y870000D02*
Y870500D01*
X605500Y876000D01*
X614000D01*
X723000Y860000D02*
X730000D01*
X710000D02*
X723000D01*
X753000Y812000D02*
Y820400D01*
X752900Y820500D02*
X753000Y820400D01*
X746000Y790000D02*
X755000D01*
X639000Y773000D02*
Y780000D01*
Y766000D02*
Y773000D01*
X574600Y744120D02*
Y744198D01*
X573798Y745000D02*
X574600Y744198D01*
X565000Y745000D02*
X573798D01*
X520000Y670000D02*
Y730500D01*
X518500D02*
X520000D01*
X514000Y735000D02*
X518500Y730500D01*
X514000Y735000D02*
Y740000D01*
X568000Y718000D02*
X590000D01*
Y670000D02*
Y718000D01*
X595000D01*
X956000Y760000D02*
Y792000D01*
X933000Y815000D02*
X956000Y792000D01*
X808000Y815000D02*
X933000D01*
X746000Y860000D02*
X763000D01*
X808000Y815000D01*
X710000Y830000D02*
X730000D01*
Y790000D02*
Y811000D01*
X710000Y790000D02*
X730000D01*
X694000D02*
Y791000D01*
X684000Y801000D02*
X694000Y791000D01*
X684000Y801000D02*
Y823750D01*
Y836250D02*
X700750D01*
X707000Y830000D01*
X710000D01*
X691700Y872700D02*
X710000D01*
X684000Y865000D02*
X691700Y872700D01*
X684000Y836250D02*
Y865000D01*
X600000Y723000D02*
Y744120D01*
X595000Y718000D02*
X600000Y723000D01*
X556000Y730000D02*
X568000Y718000D01*
X548000Y730000D02*
X556000D01*
X564000Y801000D02*
X573798D01*
X474600Y773400D02*
Y805800D01*
Y773400D02*
X475000Y773000D01*
X564000Y770000D02*
X605000D01*
X612700Y777700D02*
Y800000D01*
X605000Y770000D02*
X612700Y777700D01*
X600000Y800000D02*
Y830000D01*
X574600Y800000D02*
Y800198D01*
X573798Y801000D02*
X574600Y800198D01*
X587000Y744420D02*
X587300Y744120D01*
X587000Y744420D02*
Y762000D01*
D68*
X308000Y747000D02*
X310000Y745000D01*
Y670000D02*
Y745000D01*
X1333000Y600000D02*
X1335000Y602000D01*
X1285000Y597000D02*
X1288000Y600000D01*
X1333000D01*
X1335000Y636000D02*
X1390000D01*
X1390000Y636000D01*
X1365000Y619000D02*
X1369000Y615000D01*
X1335000Y619000D02*
X1365000D01*
X1369000Y577000D02*
Y615000D01*
D69*
X380000Y809999D02*
X380000Y810000D01*
X424000D01*
X424000Y810000D01*
D70*
X380000Y960000D02*
X418000Y998000D01*
Y1026000D01*
X310000Y960000D02*
X380000D01*
D71*
X578500Y1072000D02*
D03*
D72*
X1545000Y704000D02*
D03*
D73*
X1519500Y679500D02*
D03*
D74*
X1409000Y765000D02*
D03*
Y875000D02*
D03*
Y985000D02*
D03*
Y1095000D02*
D03*
Y1205000D02*
D03*
D75*
X437500Y740000D02*
D03*
D76*
X590012Y919282D02*
D03*
X768228Y1097498D02*
D03*
D77*
X640302Y1071902D02*
D03*
Y1097302D02*
D03*
X614902D02*
D03*
Y1046502D02*
D03*
X589502Y1071902D02*
D03*
Y1046502D02*
D03*
X741902Y919502D02*
D03*
X716502D02*
D03*
Y944902D02*
D03*
X741902Y970302D02*
D03*
X767302Y944902D02*
D03*
X767400Y970400D02*
D03*
X1146002Y784996D02*
D03*
Y734996D02*
D03*
X1036002Y784996D02*
D03*
Y734996D02*
D03*
X1146002Y894996D02*
D03*
Y844996D02*
D03*
X1036002Y894996D02*
D03*
Y844996D02*
D03*
X1146002Y1004996D02*
D03*
Y954996D02*
D03*
X1036002Y1004996D02*
D03*
Y954996D02*
D03*
X1146002Y1114996D02*
D03*
Y1064996D02*
D03*
X1036002Y1114996D02*
D03*
Y1064996D02*
D03*
X1146002Y1224996D02*
D03*
Y1174996D02*
D03*
X1036002Y1224996D02*
D03*
Y1174996D02*
D03*
D78*
X526000Y1110000D02*
D03*
Y1046500D02*
D03*
D79*
X690000Y1225000D02*
D03*
Y1190000D02*
D03*
X600000Y1225000D02*
D03*
Y1190000D02*
D03*
X510000Y1225000D02*
D03*
Y1190000D02*
D03*
X420000Y1225000D02*
D03*
Y1190000D02*
D03*
X870000Y670000D02*
D03*
X800000D02*
D03*
X660000D02*
D03*
X590000D02*
D03*
X520000D02*
D03*
X526000Y1016000D02*
D03*
X360000Y1160000D02*
D03*
X730000Y670000D02*
D03*
X310000D02*
D03*
X1580000Y720000D02*
D03*
D80*
X363000Y1110000D02*
D03*
Y1026000D02*
D03*
Y1068000D02*
D03*
X418000Y1110000D02*
D03*
Y1068000D02*
D03*
X380000Y960000D02*
D03*
X310000Y809999D02*
D03*
X814600Y1200000D02*
D03*
X956000D02*
D03*
X814600Y1090000D02*
D03*
X956000D02*
D03*
X814600Y980000D02*
D03*
X956000D02*
D03*
X814600Y870000D02*
D03*
X956000D02*
D03*
X814600Y760000D02*
D03*
X956000D02*
D03*
D81*
X418000Y1026000D02*
D03*
D82*
X290000D02*
D03*
Y1110000D02*
D03*
D83*
X380000Y809999D02*
D03*
X310000Y960000D02*
D03*
D84*
X1695000Y1120000D02*
D03*
Y1050000D02*
D03*
Y980000D02*
D03*
Y910000D02*
D03*
Y840000D02*
D03*
Y770000D02*
D03*
D85*
X1670000Y1120000D02*
D03*
Y1050000D02*
D03*
Y980000D02*
D03*
Y910000D02*
D03*
Y840000D02*
D03*
Y770000D02*
D03*
D86*
X1710000Y1210000D02*
D03*
X310000D02*
D03*
Y610000D02*
D03*
X1210000D02*
D03*
D87*
X1138000Y580000D02*
D03*
X426000Y671000D02*
D03*
X639000Y741000D02*
D03*
X1616000Y638000D02*
D03*
X1623000Y632000D02*
D03*
X1616000D02*
D03*
X1609000Y638000D02*
D03*
Y632000D02*
D03*
X1602000Y638000D02*
D03*
Y632000D02*
D03*
X1623000Y638000D02*
D03*
X1307000Y600000D02*
D03*
X1507000Y680000D02*
D03*
X1499000D02*
D03*
X1507000Y673000D02*
D03*
X1499000D02*
D03*
X1507000Y687000D02*
D03*
X1499000D02*
D03*
X1280000Y624000D02*
D03*
X1296000D02*
D03*
X1288000D02*
D03*
X1304000D02*
D03*
X1280000Y632000D02*
D03*
X1296000D02*
D03*
X1288000D02*
D03*
X1304000D02*
D03*
Y640000D02*
D03*
X1288000D02*
D03*
X1296000D02*
D03*
X1280000D02*
D03*
X1475000Y611000D02*
D03*
X1432000D02*
D03*
X1447000D02*
D03*
X1461000D02*
D03*
X1418000D02*
D03*
X1404000D02*
D03*
X1390000D02*
D03*
X1475000Y585000D02*
D03*
X1432000D02*
D03*
X1447000D02*
D03*
X1461000D02*
D03*
X1418000D02*
D03*
X1404000D02*
D03*
X1390000D02*
D03*
X1475000Y660000D02*
D03*
X1432000D02*
D03*
X1447000D02*
D03*
X1461000D02*
D03*
X1418000D02*
D03*
X1404000D02*
D03*
X1390000D02*
D03*
X1475000Y636000D02*
D03*
X1432000D02*
D03*
X1447000D02*
D03*
X1461000D02*
D03*
X1418000D02*
D03*
X1404000D02*
D03*
X1390000D02*
D03*
X1389000Y686000D02*
D03*
X1403000D02*
D03*
X1417000D02*
D03*
X1460000D02*
D03*
X1446000D02*
D03*
X1431000D02*
D03*
X1474000D02*
D03*
X1419000Y768000D02*
D03*
X1398000Y762000D02*
D03*
Y768000D02*
D03*
X1405000Y762000D02*
D03*
Y768000D02*
D03*
X1412000Y762000D02*
D03*
X1419000D02*
D03*
X1412000Y768000D02*
D03*
X1339000D02*
D03*
X1346000Y762000D02*
D03*
X1339000D02*
D03*
X1332000Y768000D02*
D03*
Y762000D02*
D03*
X1325000Y768000D02*
D03*
Y762000D02*
D03*
X1346000Y768000D02*
D03*
X1419000Y878000D02*
D03*
X1398000Y872000D02*
D03*
Y878000D02*
D03*
X1405000Y872000D02*
D03*
Y878000D02*
D03*
X1412000Y872000D02*
D03*
X1419000D02*
D03*
X1412000Y878000D02*
D03*
X1339000D02*
D03*
X1346000Y872000D02*
D03*
X1339000D02*
D03*
X1332000Y878000D02*
D03*
Y872000D02*
D03*
X1325000Y878000D02*
D03*
Y872000D02*
D03*
X1346000Y878000D02*
D03*
X1419000Y988000D02*
D03*
X1398000Y982000D02*
D03*
Y988000D02*
D03*
X1405000Y982000D02*
D03*
Y988000D02*
D03*
X1412000Y982000D02*
D03*
X1419000D02*
D03*
X1412000Y988000D02*
D03*
X1339000D02*
D03*
X1346000Y982000D02*
D03*
X1339000D02*
D03*
X1332000Y988000D02*
D03*
Y982000D02*
D03*
X1325000Y988000D02*
D03*
Y982000D02*
D03*
X1346000Y988000D02*
D03*
X1419000Y1098000D02*
D03*
X1398000Y1092000D02*
D03*
Y1098000D02*
D03*
X1405000Y1092000D02*
D03*
Y1098000D02*
D03*
X1412000Y1092000D02*
D03*
X1419000D02*
D03*
X1412000Y1098000D02*
D03*
X1339000D02*
D03*
X1346000Y1092000D02*
D03*
X1339000D02*
D03*
X1332000Y1098000D02*
D03*
Y1092000D02*
D03*
X1325000Y1098000D02*
D03*
Y1092000D02*
D03*
X1346000Y1098000D02*
D03*
Y1208000D02*
D03*
X1325000Y1202000D02*
D03*
Y1208000D02*
D03*
X1332000Y1202000D02*
D03*
Y1208000D02*
D03*
X1339000Y1202000D02*
D03*
X1346000D02*
D03*
X1339000Y1208000D02*
D03*
X1412000D02*
D03*
X1419000Y1202000D02*
D03*
X1412000D02*
D03*
X1405000Y1208000D02*
D03*
Y1202000D02*
D03*
X1398000Y1208000D02*
D03*
Y1202000D02*
D03*
X1419000Y1208000D02*
D03*
X314000Y782000D02*
D03*
X303000D02*
D03*
X292000D02*
D03*
X325000D02*
D03*
X314000Y762000D02*
D03*
X303000D02*
D03*
X292000D02*
D03*
X325000D02*
D03*
Y772000D02*
D03*
X292000D02*
D03*
X303000D02*
D03*
X314000D02*
D03*
X1726794Y1193206D02*
D03*
X1693206Y1226794D02*
D03*
X1693206Y1193206D02*
D03*
X1726794Y1226794D02*
D03*
X1710000Y1233750D02*
D03*
Y1186250D02*
D03*
X1686250Y1210000D02*
D03*
X1733750D02*
D03*
X326794Y1193206D02*
D03*
X293206Y1226794D02*
D03*
X293206Y1193206D02*
D03*
X326794Y1226794D02*
D03*
X310000Y1233750D02*
D03*
Y1186250D02*
D03*
X286250Y1210000D02*
D03*
X333750D02*
D03*
X326794Y593206D02*
D03*
X293206Y626794D02*
D03*
X293206Y593206D02*
D03*
X326794Y626794D02*
D03*
X310000Y633750D02*
D03*
Y586250D02*
D03*
X286250Y610000D02*
D03*
X333750D02*
D03*
X1226794Y593206D02*
D03*
X1193206Y626794D02*
D03*
X1193206Y593206D02*
D03*
X1226794Y626794D02*
D03*
X1210000Y633750D02*
D03*
Y586250D02*
D03*
X1186250Y610000D02*
D03*
X1233750D02*
D03*
D88*
X647000Y803000D02*
D03*
X666000Y873000D02*
D03*
X793000Y905000D02*
D03*
X628000Y857000D02*
D03*
X614000Y876000D02*
D03*
X723000Y860000D02*
D03*
X700750Y836250D02*
D03*
X1587000Y597000D02*
D03*
X1369000Y577000D02*
D03*
X753000Y812000D02*
D03*
X755000Y790000D02*
D03*
X750000Y1170000D02*
D03*
X639000Y773000D02*
D03*
X565000Y745000D02*
D03*
X564000Y801000D02*
D03*
X475000Y773000D02*
D03*
X564000Y770000D02*
D03*
X587000Y762000D02*
D03*
M02*
